<?xml version="1.0" encoding="UTF-8"?>
<svg id="Layer_1" data-name="Layer 1" xmlns="http://www.w3.org/2000/svg" viewBox="0 0 1200 682.43">
  <defs>
    <style>
      .cls-1 {
        fill: #1ba049;
      }

      .cls-1, .cls-2, .cls-3, .cls-4, .cls-5, .cls-6, .cls-7, .cls-8, .cls-9, .cls-10, .cls-11, .cls-12, .cls-13, .cls-14, .cls-15, .cls-16, .cls-17 {
        stroke-width: 0px;
      }

      .cls-2 {
        fill: #231f20;
      }

      .cls-3 {
        fill: #1a1a1a;
      }

      .cls-4 {
        fill: #c25929;
      }

      .cls-5 {
        fill: #a96f3e;
      }

      .cls-6 {
        fill: #e32228;
      }

      .cls-7 {
        fill: #3aaad1;
      }

      .cls-8 {
        fill: #396c9f;
      }

      .cls-9 {
        fill: #010101;
      }

      .cls-18 {
        stroke: #231f20;
        stroke-miterlimit: 10;
      }

      .cls-18, .cls-15 {
        fill: #fff;
      }

      .cls-10 {
        fill: #c4c4c4;
      }

      .cls-11 {
        fill: #895427;
      }

      .cls-12 {
        fill: #1a4e9f;
      }

      .cls-13 {
        fill: #fff8eb;
      }

      .cls-14 {
        fill: #fec416;
      }

      .cls-16 {
        fill: #5e3b1f;
      }

      .cls-17 {
        fill: #492f1d;
      }
    </style>
  </defs>
  <rect class="cls-18" x="-54.48" y="-103.3" width="1305.39" height="851.48"/>
  <path class="cls-2" d="M823.69,444.1h-32.29l-159.61-156.58v156.58h-24.09V125.77h24.09v148.28l155.08-148.28h32.29l-160.98,154.62,165.55,163.71h-.03Z"/>
  <path class="cls-2" d="M1146.01,309.85v11.89c0,38.51-13.67,70.92-41,97.21-27.33,26.3-63.36,39.45-108.04,39.45-47.04,0-85.84-15.35-116.41-46.07-30.56-30.72-45.84-68.4-45.84-113.11s15.15-82.38,45.42-113.08c30.27-30.72,68.62-46.07,115.08-46.07,28.2,0,54.15,6.75,77.83,20.29,23.65,13.54,41.97,31.6,54.89,54.24l-20.74,12.34c-10.31-19.38-25.49-34.99-45.62-46.75-20.13-11.76-42.26-17.64-66.36-17.64-39.96,0-72.82,13.15-98.54,39.45-25.72,26.3-38.58,58.7-38.58,97.21s12.92,70.92,38.8,97.21c25.85,26.3,59.22,39.45,100.09,39.45,36.15,0,65.39-9.85,87.75-29.53,22.32-19.68,34.83-44.52,37.48-74.5h-130.94v-22.03h154.75l-.03.03Z"/>
  <g>
    <g>
      <path class="cls-2" d="M633.87,502.73h-22.75v19.01h21.93v3.39h-21.93v21.73h-3.6v-47.53h26.34v3.39Z"/>
      <path class="cls-2" d="M642.7,499.34h3.6v47.53h-3.6v-47.53Z"/>
      <path class="cls-2" d="M689.34,499.34h3.6v47.53h-3.19l-28.04-40.9v40.9h-3.6v-47.53h2.99l28.24,41.07v-41.07Z"/>
      <path class="cls-2" d="M708.35,543.47h23.76v3.39h-27.36v-47.53h27.02v3.39h-23.42v18.47h21.73v3.39h-21.73v18.88Z"/>
      <path class="cls-2" d="M791.05,546.86l-4.64-12.09h-23.8l-4.64,12.09h-3.8l18.47-47.53h3.8l18.4,47.53h-3.8.01ZM763.92,531.38h21.18l-10.6-27.61-10.59,27.61h.01Z"/>
      <path class="cls-2" d="M831.79,546.86l-11.45-19.49h-14.96v19.49h-3.6v-47.53h18.74c3.85,0,7.15,1.38,9.91,4.14s4.14,6.07,4.14,9.91c0,3.21-.98,6.07-2.95,8.55s-4.47,4.14-7.5,4.96l11.81,19.96h-4.14ZM805.37,502.73v21.25h15.14c2.9,0,5.36-1.03,7.4-3.09s3.06-4.56,3.06-7.5-1.02-5.45-3.06-7.54c-2.04-2.08-4.5-3.12-7.4-3.12h-15.14Z"/>
      <path class="cls-2" d="M871.57,499.34v3.39h-14.94v44.13h-3.67v-44.13h-14.94v-3.39h33.54Z"/>
      <path class="cls-2" d="M913.32,499.34c4.25,0,7.79,1.4,10.59,4.21,2.81,2.81,4.21,6.31,4.21,10.52s-1.4,7.71-4.21,10.49c-2.81,2.78-6.34,4.18-10.59,4.18h-12.56v18.13h-3.6v-47.53h16.16,0ZM913.32,525.34c3.26,0,5.94-1.06,8.05-3.19s3.16-4.82,3.16-8.08-1.05-6.02-3.16-8.15-4.79-3.19-8.05-3.19h-12.56v22.61h12.56Z"/>
      <path class="cls-2" d="M964.24,546.86l-4.64-12.09h-23.8l-4.64,12.09h-3.8l18.47-47.53h3.8l18.4,47.53h-3.8.01ZM937.12,531.38h21.18l-10.6-27.61-10.59,27.61h.01Z"/>
      <path class="cls-2" d="M974.97,499.34h3.6v47.53h-3.6v-47.53Z"/>
      <path class="cls-2" d="M1021.62,499.34h3.6v47.53h-3.19l-28.04-40.9v40.9h-3.6v-47.53h2.99l28.24,41.07v-41.07Z"/>
      <path class="cls-2" d="M1066.22,499.34v3.39h-14.94v44.13h-3.67v-44.13h-14.94v-3.39h33.54Z"/>
      <path class="cls-2" d="M1077.29,543.47h23.76v3.39h-27.36v-47.53h27.02v3.39h-23.42v18.47h21.73v3.39h-21.73v18.88Z"/>
      <path class="cls-2" d="M1139.89,546.86l-11.45-19.49h-14.96v19.49h-3.6v-47.53h18.74c3.85,0,7.15,1.38,9.91,4.14s4.14,6.07,4.14,9.91c0,3.21-.98,6.07-2.95,8.55s-4.47,4.14-7.5,4.96l11.81,19.96h-4.14ZM1113.48,502.73v21.25h15.14c2.9,0,5.36-1.03,7.4-3.09s3.06-4.56,3.06-7.5-1.02-5.45-3.06-7.54c-2.04-2.08-4.5-3.12-7.4-3.12h-15.14Z"/>
    </g>
    <g>
      <path class="cls-10" d="M1126.94,594.37c-.7,0-1.39-.05-2.08-.12l-.14-.03c-.81-.32-1.75-.7-2.58-1.18-.67-.41-1.22-.76-1.71-1.1l-.35.46-.37-.1c-.98-.28-1.88-.96-2.59-1.96-.45-.62-.93-1.28-1.58-1.71-.01.02-.02.05-.03.07-.08.14-.17.29-.32.44l-.4.4-.4-.4c-2.61-2.59-4.4-5.75-5.32-9.37-.66-2.66-1.08-6.79.68-11.35.27-.91,1.6-2.08,3.9-3.47l.12-.06c.59-.18,1.19-.29,1.77-.31l1.23-.05-.1.12.1.03.75.14-.07.08.11.03-.33.61c-.25.44-.61.85-1,1.23.02,0,.06.01.08.02.4.1.7.41.86.84.17.43.18.96.12,1.57l.19.08c.16.09.28.19.36.29.2-.09.43-.14.71-.08l.81.16-.35.57c.15-.01.28.02.42.09l.44.23-.17.48c-.07.17-.12.33-.18.46v.02c.27.01.52.07.71.12.46.12.85.22,1.14.16,1.21-.05,2,.03,2.66.25.54.17,1.04.45,1.46.69.02-.09.06-.17.12-.23.11-.89.4-1.97.69-3.09.19-.71.38-1.45.53-2.14.08-.36.29-.66.6-.8.34-.17.74-.15,1.11-.05.33-1.01,1.01-1.8,2.08-2.44.24-.16.51-.32.78-.46.75-.43,1.4-.79,1.75-1.53l.28-.58.53.35c.91.59,1.73,1.49,2.53,2.35.43.48.86.94,1.28,1.32.17.12.41.27.66.43l.83.57c.61.37,1.2.86,1.77,1.32l.09.09c.53.71.98,1.44,1.37,2.23.48,1.03.77,1.83.95,2.6.45,1.64.62,3.46.5,5.38-.28,3.73-1.56,7.11-3.8,10.01l-.14.12-1.15.75c.03.15.05.33,0,.51l-.03.16-.72.69c-.79.46-1.63.81-2.38,1.12-.45.19-.88.36-1.26.55l.36.51-.62.28c-2.26,1.04-4.8,1.58-7.32,1.58h.02ZM1125.06,593.12c2.78.33,5.68-.08,8.24-1.15-.06-.38.16-.63.33-.78.57-.33,1.13-.57,1.73-.8.72-.29,1.46-.6,2.17-1.01l.26-.26s-.05-.11-.07-.14l-.22-.45,1.87-1.21c2.06-2.72,3.25-5.85,3.51-9.32.11-1.79-.05-3.47-.46-5.01-.17-.71-.44-1.44-.87-2.4-.34-.69-.74-1.35-1.21-1.98-.51-.43-1.06-.86-1.61-1.2l-.83-.57c-.26-.16-.52-.33-.77-.51-.5-.45-.95-.95-1.39-1.43-.6-.66-1.22-1.32-1.84-1.83-.52.68-1.22,1.09-1.87,1.45-.25.14-.5.28-.74.44-1.04.62-1.56,1.35-1.74,2.34l-.12.76-.68-.34c-.42-.22-.69-.23-.76-.2-.14.74-.34,1.48-.53,2.22-.23.84-.45,1.7-.58,2.42.09.05.22.11.37.17.58.24,1.2.24,1.37.24h.09c.07-.01.1-.01.14-.02l.23-.06h0c.46-.03.62.2.68.42l.05-.02.45,1.01-.59.27s-.03.01-.06.02c-.02.03-.32.25-.6.54l-.1.11c-.14.14-.34.42-.5.7-.02.06-.06.12-.08.18-.02.05-.03.07-.06.12l-.02.09h0s-.06.15-.06.15l-.25-.17-.8-.05h.45l-.45-.07.07-.57v-.14s-.01-.03-.02-.08l-.19-.12c-.14.15-.24.29-.29.4-.05.07-.07.12-.09.15-.08.18-.19.32-.41.36l-.36.09-.23-.31c-.14-.19-.12-.37-.07-.54h0s.05-.14.08-.32c.01-.07.02-.14.03-.22l-.41.07.09-.65-.29-.16c-.38-.23-.84-.49-1.3-.62-.53-.18-1.22-.24-2.2-.2-.45.09-.98-.05-1.49-.17-.51-.12-.76-.16-1,.02l-1.17.89.17-.91c-.16-.05-.28-.11-.34-.16l-.41-.24c-.19.18-.43.32-.78.27l-1.01,2.84.58-5.44c.1-.83.19-1.61.05-1.99-.02-.07-.06-.12-.09-.14-.12-.03-.51.06-1.17.62l-2.32,1.96,1.46-2.66c.25-.45.59-.93.97-1.35l-.15-.1s.01-.02.02-.03c0-.01.02-.02.02-.03l-.55-.4c-.06.01-.11.03-.17.05-2.83,1.71-3.28,2.6-3.35,2.83-1.66,4.32-1.28,8.2-.66,10.71.8,3.2,2.33,6.01,4.54,8.36.23-.27.61-.58,1.24-.29.96.58,1.56,1.4,2.08,2.13.48.67,1.03,1.14,1.63,1.4l.54-.71.45.33c.55.41,1.21.85,2.07,1.37.72.43,1.58.78,2.34,1.08l-.02-.06Z"/>
      <path class="cls-10" d="M1126.96,594.79c-.7,0-1.39-.05-2.08-.12l-.14-.03c-.81-.32-1.75-.7-2.58-1.18-.67-.41-1.22-.76-1.71-1.1l-.35.46-.37-.1c-.98-.28-1.88-.96-2.59-1.96-.45-.62-.93-1.28-1.58-1.71-.01.02-.02.05-.03.07-.08.14-.17.29-.32.44l-.4.4-.4-.4c-2.61-2.59-4.4-5.75-5.32-9.37-.66-2.66-1.08-6.79.68-11.35.27-.91,1.6-2.08,3.9-3.47l.12-.06c.59-.18,1.19-.29,1.77-.31l1.23-.05-.1.12.1.03.75.14-.07.08.11.03-.33.61c-.25.44-.61.85-1,1.23.02,0,.06.01.08.02.4.1.7.41.86.84.17.43.18.96.12,1.57l.19.08c.16.09.28.19.36.29.2-.09.43-.14.71-.08l.81.16-.35.57c.15-.01.28.02.42.09l.44.23-.17.48c-.07.17-.12.33-.18.46v.02c.27.01.52.07.71.12.46.12.85.22,1.14.16,1.21-.05,2,.03,2.66.25.54.17,1.04.45,1.46.69.02-.09.06-.17.12-.23.11-.89.4-1.97.69-3.09.19-.71.38-1.45.53-2.14.08-.36.29-.66.6-.8.34-.17.74-.15,1.11-.05.33-1.01,1.01-1.8,2.08-2.44.24-.16.51-.32.78-.46.75-.43,1.4-.79,1.75-1.53l.28-.58.53.35c.91.59,1.73,1.49,2.53,2.35.43.48.86.94,1.28,1.32.17.12.41.27.66.43l.83.57c.61.37,1.2.86,1.77,1.32l.09.09c.53.71.98,1.44,1.37,2.23.48,1.03.77,1.83.95,2.6.45,1.64.62,3.46.5,5.38-.28,3.73-1.56,7.11-3.8,10.01l-.14.12-1.15.75c.03.15.05.33,0,.51l-.03.16-.72.69c-.79.46-1.63.81-2.38,1.12-.45.19-.88.36-1.26.55l.36.51-.62.28c-2.26,1.04-4.8,1.58-7.32,1.58h.02ZM1125.08,593.55c2.78.33,5.68-.08,8.24-1.15-.06-.38.16-.63.33-.78.57-.33,1.13-.57,1.73-.8.72-.29,1.46-.6,2.17-1.01l.26-.26s-.05-.11-.07-.14l-.22-.45,1.87-1.21c2.06-2.72,3.25-5.85,3.51-9.32.11-1.79-.05-3.47-.46-5.01-.17-.71-.44-1.44-.87-2.4-.34-.69-.74-1.35-1.21-1.98-.51-.43-1.06-.86-1.61-1.2l-.83-.57c-.26-.16-.52-.33-.77-.51-.5-.45-.95-.95-1.39-1.43-.6-.66-1.22-1.32-1.84-1.83-.52.68-1.22,1.09-1.87,1.45-.25.14-.5.28-.74.44-1.04.62-1.56,1.35-1.74,2.34l-.12.76-.68-.34c-.42-.22-.69-.23-.76-.2-.14.74-.34,1.48-.53,2.22-.23.84-.45,1.7-.58,2.42.09.05.22.11.37.17.58.24,1.2.24,1.37.24h.09c.07-.01.1-.01.14-.02l.23-.06h0c.46-.03.62.2.68.42l.05-.02.45,1.01-.59.27s-.03.01-.06.02c-.02.03-.32.25-.6.54l-.1.11c-.14.14-.34.42-.5.7-.02.06-.06.12-.08.18-.02.05-.03.07-.06.12l-.02.09h0s-.06.15-.06.15l-.25-.17-.8-.05h.45l-.45-.07.07-.57v-.14s-.01-.03-.02-.08l-.19-.12c-.14.15-.24.29-.29.4-.05.07-.07.12-.09.15-.08.18-.19.32-.41.36l-.36.09-.23-.31c-.14-.19-.12-.37-.07-.54h0s.05-.14.08-.32c.01-.07.02-.14.03-.22l-.41.07.09-.65-.29-.16c-.38-.23-.84-.49-1.3-.62-.53-.18-1.22-.24-2.2-.2-.45.09-.98-.05-1.49-.17-.51-.12-.76-.16-1,.02l-1.17.89.17-.91c-.16-.05-.28-.11-.34-.16l-.41-.24c-.19.18-.43.32-.78.27l-1.01,2.84.58-5.44c.1-.83.19-1.61.05-1.99-.02-.07-.06-.12-.09-.14-.12-.03-.51.06-1.17.62l-2.32,1.96,1.46-2.66c.25-.45.59-.93.97-1.35l-.15-.1s.01-.02.02-.03c0-.01.02-.02.02-.03l-.55-.4c-.06.01-.11.03-.17.05-2.83,1.71-3.28,2.6-3.35,2.83-1.66,4.32-1.28,8.2-.66,10.71.8,3.2,2.33,6.01,4.54,8.36.23-.27.61-.58,1.24-.29.96.58,1.56,1.4,2.08,2.13.48.67,1.03,1.14,1.63,1.4l.54-.71.45.33c.55.41,1.21.85,2.07,1.37.72.43,1.58.78,2.34,1.08l-.02-.06Z"/>
      <path class="cls-15" d="M1126.94,594.54c-.7,0-1.39-.05-2.08-.12l-.14-.03c-.81-.32-1.75-.7-2.58-1.18-.67-.41-1.22-.76-1.71-1.1l-.35.46-.37-.1c-.98-.28-1.88-.96-2.59-1.96-.45-.62-.93-1.28-1.58-1.71-.01.02-.02.05-.03.07-.08.14-.17.29-.32.44l-.4.4-.4-.4c-2.61-2.59-4.4-5.75-5.32-9.37-.66-2.66-1.08-6.79.68-11.35.27-.91,1.6-2.08,3.9-3.47l.12-.06c.59-.18,1.19-.29,1.77-.31l1.23-.05-.1.12.1.03.75.14-.07.08.11.03-.33.61c-.25.44-.61.85-1,1.23.02,0,.06.01.08.02.4.1.7.41.86.84.17.43.18.96.12,1.57l.19.08c.16.09.28.19.36.29.2-.09.43-.14.71-.08l.81.16-.35.57c.15-.01.28.02.42.09l.44.23-.17.48c-.07.17-.12.33-.18.46v.02c.27.01.52.07.71.12.46.12.85.22,1.14.16,1.21-.05,2,.03,2.66.25.54.17,1.04.45,1.46.69.02-.09.06-.17.12-.23.11-.89.4-1.97.69-3.09.19-.71.38-1.45.53-2.14.08-.36.29-.66.6-.8.34-.17.74-.15,1.11-.05.33-1.01,1.01-1.8,2.08-2.44.24-.16.51-.32.78-.46.75-.43,1.4-.79,1.75-1.53l.28-.58.53.35c.91.59,1.73,1.49,2.53,2.35.43.48.86.94,1.28,1.32.17.12.41.27.66.43l.83.57c.61.37,1.2.86,1.77,1.32l.09.09c.53.71.98,1.44,1.37,2.23.48,1.03.77,1.83.95,2.6.45,1.64.62,3.46.5,5.38-.28,3.73-1.56,7.11-3.8,10.01l-.14.12-1.15.75c.03.15.05.33,0,.51l-.03.16-.72.69c-.79.46-1.63.81-2.38,1.12-.45.19-.88.36-1.26.55l.36.51-.62.28c-2.26,1.04-4.8,1.58-7.32,1.58h.02ZM1125.06,593.29c2.78.33,5.68-.08,8.24-1.15-.06-.38.16-.63.33-.78.57-.33,1.13-.57,1.73-.8.72-.29,1.46-.6,2.17-1.01l.26-.26s-.05-.11-.07-.14l-.22-.45,1.87-1.21c2.06-2.72,3.25-5.85,3.51-9.32.11-1.79-.05-3.47-.46-5.01-.17-.71-.44-1.44-.87-2.4-.34-.69-.74-1.35-1.21-1.98-.51-.43-1.06-.86-1.61-1.2l-.83-.57c-.26-.16-.52-.33-.77-.51-.5-.45-.95-.95-1.39-1.43-.6-.66-1.22-1.32-1.84-1.83-.52.68-1.22,1.09-1.87,1.45-.25.14-.5.28-.74.44-1.04.62-1.56,1.35-1.74,2.34l-.12.76-.68-.34c-.42-.22-.69-.23-.76-.2-.14.74-.34,1.48-.53,2.22-.23.84-.45,1.7-.58,2.42.09.05.22.11.37.17.58.24,1.2.24,1.37.24h.09c.07-.01.1-.01.14-.02l.23-.06h0c.46-.03.62.2.68.42l.05-.02.45,1.01-.59.27s-.03.01-.06.02c-.02.03-.32.25-.6.54l-.1.11c-.14.14-.34.42-.5.7-.02.06-.06.12-.08.18-.02.05-.03.07-.06.12l-.02.09h0s-.06.15-.06.15l-.25-.17-.8-.05h.45l-.45-.07.07-.57v-.14s-.01-.03-.02-.08l-.19-.12c-.14.15-.24.29-.29.4-.05.07-.07.12-.09.15-.08.18-.19.32-.41.36l-.36.09-.23-.31c-.14-.19-.12-.37-.07-.54h0s.05-.14.08-.32c.01-.07.02-.14.03-.22l-.41.07.09-.65-.29-.16c-.38-.23-.84-.49-1.3-.62-.53-.18-1.22-.24-2.2-.2-.45.09-.98-.05-1.49-.17-.51-.12-.76-.16-1,.02l-1.17.89.17-.91c-.16-.05-.28-.11-.34-.16l-.41-.24c-.19.18-.43.32-.78.27l-1.01,2.84.58-5.44c.1-.83.19-1.61.05-1.99-.02-.07-.06-.12-.09-.14-.12-.03-.51.06-1.17.62l-2.32,1.96,1.46-2.66c.25-.45.59-.93.97-1.35l-.15-.1s.01-.02.02-.03c0-.01.02-.02.02-.03l-.55-.4c-.06.01-.11.03-.17.05-2.83,1.71-3.28,2.6-3.35,2.83-1.66,4.32-1.28,8.2-.66,10.71.8,3.2,2.33,6.01,4.54,8.36.23-.27.61-.58,1.24-.29.96.58,1.56,1.4,2.08,2.13.48.67,1.03,1.14,1.63,1.4l.54-.71.45.33c.55.41,1.21.85,2.07,1.37.72.43,1.58.78,2.34,1.08l-.02-.06Z"/>
      <path class="cls-12" d="M1114.78,588.89c.33-.33.37-.92.94-.66.78.48,1.31,1.2,1.86,1.95.53.75,1.28,1.45,2.29,1.74l.45-.6c.65.48,1.36.94,2.12,1.39.76.44,1.62.8,2.49,1.14,3.27.4,6.48-.2,9.11-1.41-.16-.23-.27-.45-.05-.65,1.02-.57,2.52-1.01,3.88-1.8.17-.17.33-.33.5-.49.06-.23-.07-.46-.14-.61.55-.36,1.05-.69,1.53-1,2.24-2.92,3.42-6.25,3.68-9.71.11-1.73,0-3.5-.49-5.21-.2-.85-.54-1.69-.91-2.48-.38-.78-.83-1.48-1.31-2.14-.59-.49-1.14-.93-1.72-1.29-.27-.19-.54-.37-.8-.54-.27-.16-.52-.33-.75-.5-1.19-1.11-2.4-2.76-3.73-3.62-.59,1.19-1.77,1.57-2.75,2.23-1,.6-1.75,1.41-1.98,2.72-.52-.26-1.39-.53-1.55.2-.46,2.16-1.34,4.65-1.26,6,.09.31-.28-1.04-.01-.19-.05.2.03.37.16.53l.06.06h0l-.37-1.01h0v.02l.03.07c.03.09.05.16.03.09.16.46.19,1.32.09,1.81-.08.52-.2.58.02.19.2-.36.8-1.05,1.38-1.4.26-.18.54-.29.65-.33l.08-.02h.02c-.16.03,1.35-.32.71-.17h-.02l-.07.02c-.08.01-.12.01-.33.03-.1,0-.86,0-1.58-.28-.35-.14-.62-.29-.63-.32-.05-.03.22.15.5.54.31.41.62.97.75,1.48.03.09.06.2.08.32.01.14.02.12.03.22,0,.22,0,.09,0,.17h0l-.08.61h0v-.08s.01.02.05-.1c.06-.18.08-.19.18-.42.16-.28.4-.63.55-.79l.12-.15c.4-.41.81-.69.88-.71.11-.06-.27.14-.68.18-.19.05-.43.07-.67.07-.16.03-.63,0-.96-.06-.45-.06-.84.01-1.29.08.05-.23.15-.29-.32-.48-.48-.27-1.04-.63-1.67-.83-.65-.22-1.44-.26-2.38-.24-.44.08-.89-.05-1.38-.17-.48-.11-.96-.22-1.43.14.11-.61.28-.89.5-1.48-.33-.17-.41.34-.5.78-.09.43-.14.83-.71.5.18-.29.23-.63.27-.98s.02-.75.22-1.05c-.53-.1-.84.48-1.1,1.03-.28.55-.4,1.09-.89.95-.08-.23.33-.71.7-1.13.35-.43.57-.81.05-1.12-.24-.14-.52.63-.66,1.02.14-1.26.34-2.34.09-2.98-.23-.61-.88-.81-2.16.25.25-.46.63-.97,1.09-1.43.45-.46.89-.91,1.17-1.38h-.02c-.36.38-1.13,1-1.43,1.41.36-.51.76-1.01,1.15-1.48-.19-.03-.4-.06-.6-.06-.41.29-.8.62-1.11,1.04.26-.35.53-.71.8-1.05-.51.01-1.06.11-1.62.28-1.58.95-3.37,2.23-3.67,3.19-1.47,3.8-1.49,7.66-.67,11.01.85,3.37,2.5,6.47,5.16,9.11h.02Z"/>
    </g>
    <g>
      <path class="cls-10" d="M1079.12,594.37c-.7,0-1.39-.05-2.08-.12l-.14-.03c-.81-.32-1.75-.7-2.58-1.18-.67-.41-1.22-.76-1.71-1.1l-.35.46-.37-.1c-.98-.28-1.88-.96-2.59-1.96-.45-.62-.93-1.28-1.58-1.71-.01.02-.02.05-.03.07-.08.14-.17.29-.32.44l-.4.4-.4-.4c-2.61-2.59-4.4-5.75-5.32-9.37-.66-2.66-1.08-6.79.68-11.35.27-.91,1.6-2.08,3.9-3.47l.12-.06c.59-.18,1.19-.29,1.77-.31l1.23-.05-.1.12.1.03.75.14-.07.08.11.03-.33.61c-.25.44-.61.85-1,1.23.02,0,.06.01.08.02.4.1.7.41.86.84.17.43.18.96.12,1.57l.19.08c.16.09.28.19.36.29.2-.09.43-.14.71-.08l.81.16-.35.57c.15-.01.28.02.42.09l.44.23-.17.48c-.07.17-.12.33-.18.46v.02c.27.01.52.07.71.12.46.12.85.22,1.14.16,1.21-.05,2,.03,2.66.25.54.17,1.04.45,1.46.69.02-.09.06-.17.12-.23.11-.89.4-1.97.69-3.09.19-.71.38-1.45.53-2.14.08-.36.29-.66.6-.8.34-.17.74-.15,1.11-.05.33-1.01,1.01-1.8,2.08-2.44.24-.16.51-.32.78-.46.75-.43,1.4-.79,1.75-1.53l.28-.58.53.35c.91.59,1.73,1.49,2.53,2.35.43.48.86.94,1.28,1.32.17.12.41.27.66.43l.83.57c.61.37,1.2.86,1.77,1.32l.09.09c.53.71.98,1.44,1.37,2.23.48,1.03.77,1.83.95,2.6.45,1.64.62,3.46.5,5.38-.28,3.73-1.56,7.11-3.8,10.01l-.14.12-1.15.75c.03.15.05.33,0,.51l-.03.16-.72.69c-.79.46-1.63.81-2.38,1.12-.45.19-.88.36-1.26.55l.36.51-.62.28c-2.26,1.04-4.8,1.58-7.32,1.58h.02ZM1077.24,593.12c2.78.33,5.68-.08,8.24-1.15-.06-.38.16-.63.33-.78.57-.33,1.13-.57,1.73-.8.72-.29,1.46-.6,2.17-1.01l.26-.26s-.05-.11-.07-.14l-.22-.45,1.87-1.21c2.06-2.72,3.25-5.85,3.51-9.32.11-1.79-.05-3.47-.46-5.01-.17-.71-.44-1.44-.87-2.4-.34-.69-.74-1.35-1.21-1.98-.51-.43-1.06-.86-1.61-1.2l-.83-.57c-.26-.16-.52-.33-.77-.51-.5-.45-.95-.95-1.39-1.43-.6-.66-1.22-1.32-1.84-1.83-.52.68-1.22,1.09-1.87,1.45-.25.14-.5.28-.74.44-1.04.62-1.56,1.35-1.74,2.34l-.12.76-.68-.34c-.42-.22-.69-.23-.76-.2-.14.74-.34,1.48-.53,2.22-.23.84-.45,1.7-.58,2.42.09.05.22.11.37.17.58.24,1.2.24,1.37.24h.09c.07-.01.1-.01.14-.02l.23-.06h0c.46-.03.62.2.68.42l.05-.02.45,1.01-.59.27s-.03.01-.06.02c-.02.03-.32.25-.6.54l-.1.11c-.14.14-.34.42-.5.7-.02.06-.06.12-.08.18-.02.05-.03.07-.06.12l-.02.09h0s-.06.15-.06.15l-.25-.17-.8-.05h.45l-.45-.07.07-.57v-.14s-.01-.03-.02-.08l-.19-.12c-.14.15-.24.29-.29.4-.05.07-.07.12-.09.15-.08.18-.19.32-.41.36l-.36.09-.23-.31c-.14-.19-.12-.37-.07-.54h0s.05-.14.08-.32c.01-.07.02-.14.03-.22l-.41.07.09-.65-.29-.16c-.38-.23-.84-.49-1.3-.62-.53-.18-1.22-.24-2.2-.2-.45.09-.98-.05-1.49-.17-.51-.12-.76-.16-1,.02l-1.17.89.17-.91c-.16-.05-.28-.11-.34-.16l-.41-.24c-.19.18-.43.32-.78.27l-1.01,2.84.58-5.44c.1-.83.19-1.61.05-1.99-.02-.07-.06-.12-.09-.14-.12-.03-.51.06-1.17.62l-2.32,1.96,1.46-2.66c.25-.45.59-.93.97-1.35l-.15-.1s.01-.02.02-.03c0-.01.02-.02.02-.03l-.55-.4c-.06.01-.11.03-.17.05-2.83,1.71-3.28,2.6-3.35,2.83-1.66,4.32-1.28,8.2-.66,10.71.8,3.2,2.33,6.01,4.54,8.36.23-.27.61-.58,1.24-.29.96.58,1.56,1.4,2.08,2.13.48.67,1.03,1.14,1.63,1.4l.54-.71.45.33c.55.41,1.21.85,2.07,1.37.72.43,1.58.78,2.34,1.08l-.02-.06Z"/>
      <path class="cls-10" d="M1079.14,594.79c-.7,0-1.39-.05-2.08-.12l-.14-.03c-.81-.32-1.75-.7-2.58-1.18-.67-.41-1.22-.76-1.71-1.1l-.35.46-.37-.1c-.98-.28-1.88-.96-2.59-1.96-.45-.62-.93-1.28-1.58-1.71-.01.02-.02.05-.03.07-.08.14-.17.29-.32.44l-.4.4-.4-.4c-2.61-2.59-4.4-5.75-5.32-9.37-.66-2.66-1.08-6.79.68-11.35.27-.91,1.6-2.08,3.9-3.47l.12-.06c.59-.18,1.19-.29,1.77-.31l1.23-.05-.1.12.1.03.75.14-.07.08.11.03-.33.61c-.25.44-.61.85-1,1.23.02,0,.06.01.08.02.4.1.7.41.86.84.17.43.18.96.12,1.57l.19.08c.16.09.28.19.36.29.2-.09.43-.14.71-.08l.81.16-.35.57c.15-.01.28.02.42.09l.44.23-.17.48c-.07.17-.12.33-.18.46v.02c.27.01.52.07.71.12.46.12.85.22,1.14.16,1.21-.05,2,.03,2.66.25.54.17,1.04.45,1.46.69.02-.09.06-.17.12-.23.11-.89.4-1.97.69-3.09.19-.71.38-1.45.53-2.14.08-.36.29-.66.6-.8.34-.17.74-.15,1.11-.05.33-1.01,1.01-1.8,2.08-2.44.24-.16.51-.32.78-.46.75-.43,1.4-.79,1.75-1.53l.28-.58.53.35c.91.59,1.73,1.49,2.53,2.35.43.48.86.94,1.28,1.32.17.12.41.27.66.43l.83.57c.61.37,1.2.86,1.77,1.32l.09.09c.53.71.98,1.44,1.37,2.23.48,1.03.77,1.83.95,2.6.45,1.64.62,3.46.5,5.38-.28,3.73-1.56,7.11-3.8,10.01l-.14.12-1.15.75c.03.15.05.33,0,.51l-.03.16-.72.69c-.79.46-1.63.81-2.38,1.12-.45.19-.88.36-1.26.55l.36.51-.62.28c-2.26,1.04-4.8,1.58-7.32,1.58h.02ZM1077.26,593.55c2.78.33,5.68-.08,8.24-1.15-.06-.38.16-.63.33-.78.57-.33,1.13-.57,1.73-.8.72-.29,1.46-.6,2.17-1.01l.26-.26s-.05-.11-.07-.14l-.22-.45,1.87-1.21c2.06-2.72,3.25-5.85,3.51-9.32.11-1.79-.05-3.47-.46-5.01-.17-.71-.44-1.44-.87-2.4-.34-.69-.74-1.35-1.21-1.98-.51-.43-1.06-.86-1.61-1.2l-.83-.57c-.26-.16-.52-.33-.77-.51-.5-.45-.95-.95-1.39-1.43-.6-.66-1.22-1.32-1.84-1.83-.52.68-1.22,1.09-1.87,1.45-.25.14-.5.28-.74.44-1.04.62-1.56,1.35-1.74,2.34l-.12.76-.68-.34c-.42-.22-.69-.23-.76-.2-.14.74-.34,1.48-.53,2.22-.23.84-.45,1.7-.58,2.42.09.05.22.11.37.17.58.24,1.2.24,1.37.24h.09c.07-.01.1-.01.14-.02l.23-.06h0c.46-.03.62.2.68.42l.05-.02.45,1.01-.59.27s-.03.01-.06.02c-.02.03-.32.25-.6.54l-.1.11c-.14.14-.34.42-.5.7-.02.06-.06.12-.08.18-.02.05-.03.07-.06.12l-.02.09h0s-.06.15-.06.15l-.25-.17-.8-.05h.45l-.45-.07.07-.57v-.14s-.01-.03-.02-.08l-.19-.12c-.14.15-.24.29-.29.4-.05.07-.07.12-.09.15-.08.18-.19.32-.41.36l-.36.09-.23-.31c-.14-.19-.12-.37-.07-.54h0s.05-.14.08-.32c.01-.07.02-.14.03-.22l-.41.07.09-.65-.29-.16c-.38-.23-.84-.49-1.3-.62-.53-.18-1.22-.24-2.2-.2-.45.09-.98-.05-1.49-.17-.51-.12-.76-.16-1,.02l-1.17.89.17-.91c-.16-.05-.28-.11-.34-.16l-.41-.24c-.19.18-.43.32-.78.27l-1.01,2.84.58-5.44c.1-.83.19-1.61.05-1.99-.02-.07-.06-.12-.09-.14-.12-.03-.51.06-1.17.62l-2.32,1.96,1.46-2.66c.25-.45.59-.93.97-1.35l-.15-.1s.01-.02.02-.03c0-.01.02-.02.02-.03l-.55-.4c-.06.01-.11.03-.17.05-2.83,1.71-3.28,2.6-3.35,2.83-1.66,4.32-1.28,8.2-.66,10.71.8,3.2,2.33,6.01,4.54,8.36.23-.27.61-.58,1.24-.29.96.58,1.56,1.4,2.08,2.13.48.67,1.03,1.14,1.63,1.4l.54-.71.45.33c.55.41,1.21.85,2.07,1.37.72.43,1.58.78,2.34,1.08l-.02-.06Z"/>
      <path class="cls-15" d="M1079.12,594.54c-.7,0-1.39-.05-2.08-.12l-.14-.03c-.81-.32-1.75-.7-2.58-1.18-.67-.41-1.22-.76-1.71-1.1l-.35.46-.37-.1c-.98-.28-1.88-.96-2.59-1.96-.45-.62-.93-1.28-1.58-1.71-.01.02-.02.05-.03.07-.08.14-.17.29-.32.44l-.4.4-.4-.4c-2.61-2.59-4.4-5.75-5.32-9.37-.66-2.66-1.08-6.79.68-11.35.27-.91,1.6-2.08,3.9-3.47l.12-.06c.59-.18,1.19-.29,1.77-.31l1.23-.05-.1.12.1.03.75.14-.07.08.11.03-.33.61c-.25.44-.61.85-1,1.23.02,0,.06.01.08.02.4.1.7.41.86.84.17.43.18.96.12,1.57l.19.08c.16.09.28.19.36.29.2-.09.43-.14.71-.08l.81.16-.35.57c.15-.01.28.02.42.09l.44.23-.17.48c-.07.17-.12.33-.18.46v.02c.27.01.52.07.71.12.46.12.85.22,1.14.16,1.21-.05,2,.03,2.66.25.54.17,1.04.45,1.46.69.02-.09.06-.17.12-.23.11-.89.4-1.97.69-3.09.19-.71.38-1.45.53-2.14.08-.36.29-.66.6-.8.34-.17.74-.15,1.11-.05.33-1.01,1.01-1.8,2.08-2.44.24-.16.51-.32.78-.46.75-.43,1.4-.79,1.75-1.53l.28-.58.53.35c.91.59,1.73,1.49,2.53,2.35.43.48.86.94,1.28,1.32.17.12.41.27.66.43l.83.57c.61.37,1.2.86,1.77,1.32l.09.09c.53.71.98,1.44,1.37,2.23.48,1.03.77,1.83.95,2.6.45,1.64.62,3.46.5,5.38-.28,3.73-1.56,7.11-3.8,10.01l-.14.12-1.15.75c.03.15.05.33,0,.51l-.03.16-.72.69c-.79.46-1.63.81-2.38,1.12-.45.19-.88.36-1.26.55l.36.51-.62.28c-2.26,1.04-4.8,1.58-7.32,1.58h.02ZM1077.24,593.29c2.78.33,5.68-.08,8.24-1.15-.06-.38.16-.63.33-.78.57-.33,1.13-.57,1.73-.8.72-.29,1.46-.6,2.17-1.01l.26-.26s-.05-.11-.07-.14l-.22-.45,1.87-1.21c2.06-2.72,3.25-5.85,3.51-9.32.11-1.79-.05-3.47-.46-5.01-.17-.71-.44-1.44-.87-2.4-.34-.69-.74-1.35-1.21-1.98-.51-.43-1.06-.86-1.61-1.2l-.83-.57c-.26-.16-.52-.33-.77-.51-.5-.45-.95-.95-1.39-1.43-.6-.66-1.22-1.32-1.84-1.83-.52.68-1.22,1.09-1.87,1.45-.25.14-.5.28-.74.44-1.04.62-1.56,1.35-1.74,2.34l-.12.76-.68-.34c-.42-.22-.69-.23-.76-.2-.14.74-.34,1.48-.53,2.22-.23.84-.45,1.7-.58,2.42.09.05.22.11.37.17.58.24,1.2.24,1.37.24h.09c.07-.01.1-.01.14-.02l.23-.06h0c.46-.03.62.2.68.42l.05-.02.45,1.01-.59.27s-.03.01-.06.02c-.02.03-.32.25-.6.54l-.1.11c-.14.14-.34.42-.5.7-.02.06-.06.12-.08.18-.02.05-.03.07-.06.12l-.02.09h0s-.06.15-.06.15l-.25-.17-.8-.05h.45l-.45-.07.07-.57v-.14s-.01-.03-.02-.08l-.19-.12c-.14.15-.24.29-.29.4-.05.07-.07.12-.09.15-.08.18-.19.32-.41.36l-.36.09-.23-.31c-.14-.19-.12-.37-.07-.54h0s.05-.14.08-.32c.01-.07.02-.14.03-.22l-.41.07.09-.65-.29-.16c-.38-.23-.84-.49-1.3-.62-.53-.18-1.22-.24-2.2-.2-.45.09-.98-.05-1.49-.17-.51-.12-.76-.16-1,.02l-1.17.89.17-.91c-.16-.05-.28-.11-.34-.16l-.41-.24c-.19.18-.43.32-.78.27l-1.01,2.84.58-5.44c.1-.83.19-1.61.05-1.99-.02-.07-.06-.12-.09-.14-.12-.03-.51.06-1.17.62l-2.32,1.96,1.46-2.66c.25-.45.59-.93.97-1.35l-.15-.1s.01-.02.02-.03c0-.01.02-.02.02-.03l-.55-.4c-.06.01-.11.03-.17.05-2.83,1.71-3.28,2.6-3.35,2.83-1.66,4.32-1.28,8.2-.66,10.71.8,3.2,2.33,6.01,4.54,8.36.23-.27.61-.58,1.24-.29.96.58,1.56,1.4,2.08,2.13.48.67,1.03,1.14,1.63,1.4l.54-.71.45.33c.55.41,1.21.85,2.07,1.37.72.43,1.58.78,2.34,1.08l-.02-.06Z"/>
      <path class="cls-1" d="M1066.97,588.89c.33-.33.37-.92.94-.66.78.48,1.31,1.2,1.86,1.95.53.75,1.28,1.45,2.29,1.74l.45-.6c.65.48,1.36.94,2.12,1.39.76.44,1.62.8,2.49,1.14,3.27.4,6.48-.2,9.11-1.41-.16-.23-.27-.45-.05-.65,1.02-.57,2.52-1.01,3.88-1.8.17-.17.33-.33.5-.49.06-.23-.07-.46-.14-.61.55-.36,1.05-.69,1.53-1,2.24-2.92,3.42-6.25,3.68-9.71.11-1.73,0-3.5-.49-5.21-.2-.85-.54-1.69-.91-2.48-.38-.78-.83-1.48-1.31-2.14-.59-.49-1.14-.93-1.72-1.29-.27-.19-.54-.37-.8-.54-.27-.16-.52-.33-.75-.5-1.19-1.11-2.4-2.76-3.73-3.62-.59,1.19-1.77,1.57-2.75,2.23-1,.6-1.75,1.41-1.98,2.72-.52-.26-1.39-.53-1.55.2-.46,2.16-1.34,4.65-1.26,6,.09.31-.28-1.04-.01-.19-.05.2.03.37.16.53l.06.06h0l-.37-1.01h0v.02l.03.07c.03.09.05.16.03.09.16.46.19,1.32.09,1.81-.08.52-.2.58.02.19.2-.36.8-1.05,1.38-1.4.26-.18.54-.29.65-.33l.08-.02h.02c-.16.03,1.35-.32.71-.17h-.02l-.07.02c-.08.01-.12.01-.33.03-.1,0-.86,0-1.58-.28-.35-.14-.62-.29-.63-.32-.05-.03.22.15.5.54.31.41.62.97.75,1.48.03.09.06.2.08.32.01.14.02.12.03.22,0,.22,0,.09,0,.17h0l-.08.61h0v-.08s.01.02.05-.1c.06-.18.08-.19.18-.42.16-.28.4-.63.55-.79l.12-.15c.4-.41.81-.69.88-.71.11-.06-.27.14-.68.18-.19.05-.43.07-.67.07-.16.03-.63,0-.96-.06-.45-.06-.84.01-1.29.08.05-.23.15-.29-.32-.48-.48-.27-1.04-.63-1.67-.83-.65-.22-1.44-.26-2.38-.24-.44.08-.89-.05-1.38-.17-.48-.11-.96-.22-1.43.14.11-.61.28-.89.5-1.48-.33-.17-.41.34-.5.78-.09.43-.14.83-.71.5.18-.29.23-.63.27-.98s.02-.75.22-1.05c-.53-.1-.84.48-1.1,1.03-.28.55-.4,1.09-.89.95-.08-.23.33-.71.7-1.13.35-.43.57-.81.05-1.12-.24-.14-.52.63-.66,1.02.14-1.26.34-2.34.09-2.98-.23-.61-.88-.81-2.16.25.25-.46.63-.97,1.09-1.43.45-.46.89-.91,1.17-1.38h-.02c-.36.38-1.13,1-1.43,1.41.36-.51.76-1.01,1.15-1.48-.19-.03-.4-.06-.6-.06-.41.29-.8.62-1.11,1.04.26-.35.53-.71.8-1.05-.51.01-1.06.11-1.62.28-1.58.95-3.37,2.23-3.67,3.19-1.47,3.8-1.49,7.66-.67,11.01.85,3.37,2.5,6.47,5.16,9.11h.02Z"/>
    </g>
    <g>
      <path class="cls-10" d="M1031.3,594.37c-.7,0-1.39-.05-2.08-.12l-.14-.03c-.81-.32-1.75-.7-2.58-1.18-.67-.41-1.22-.76-1.71-1.1l-.35.46-.37-.1c-.98-.28-1.88-.96-2.59-1.96-.45-.62-.93-1.28-1.58-1.71-.01.02-.02.05-.03.07-.08.14-.17.29-.32.44l-.4.4-.4-.4c-2.61-2.59-4.4-5.75-5.32-9.37-.66-2.66-1.08-6.79.68-11.35.27-.91,1.6-2.08,3.9-3.47l.12-.06c.59-.18,1.19-.29,1.77-.31l1.23-.05-.1.12.1.03.75.14-.07.08.11.03-.33.61c-.25.44-.61.85-1,1.23.02,0,.06.01.08.02.4.1.7.41.86.84.17.43.18.96.12,1.57l.19.08c.16.09.28.19.36.29.2-.09.43-.14.71-.08l.81.16-.35.57c.15-.01.28.02.42.09l.44.23-.17.48c-.07.17-.12.33-.18.46v.02c.27.01.52.07.71.12.46.12.85.22,1.14.16,1.21-.05,2,.03,2.66.25.54.17,1.04.45,1.46.69.02-.09.06-.17.12-.23.11-.89.4-1.97.69-3.09.19-.71.38-1.45.53-2.14.08-.36.29-.66.6-.8.34-.17.74-.15,1.11-.05.33-1.01,1.01-1.8,2.08-2.44.24-.16.51-.32.78-.46.75-.43,1.4-.79,1.75-1.53l.28-.58.53.35c.91.59,1.73,1.49,2.53,2.35.43.48.86.94,1.28,1.32.17.12.41.27.66.43l.83.57c.61.37,1.2.86,1.77,1.32l.09.09c.53.71.98,1.44,1.37,2.23.48,1.03.77,1.83.95,2.6.45,1.64.62,3.46.5,5.38-.28,3.73-1.56,7.11-3.8,10.01l-.14.12-1.15.75c.03.15.05.33,0,.51l-.03.16-.72.69c-.79.46-1.63.81-2.38,1.12-.45.19-.88.36-1.26.55l.36.51-.62.28c-2.26,1.04-4.8,1.58-7.32,1.58h.02ZM1029.43,593.12c2.78.33,5.68-.08,8.24-1.15-.06-.38.16-.63.33-.78.57-.33,1.13-.57,1.73-.8.72-.29,1.46-.6,2.17-1.01l.26-.26s-.05-.11-.07-.14l-.22-.45,1.87-1.21c2.06-2.72,3.25-5.85,3.51-9.32.11-1.79-.05-3.47-.46-5.01-.17-.71-.44-1.44-.87-2.4-.34-.69-.74-1.35-1.21-1.98-.51-.43-1.06-.86-1.61-1.2l-.83-.57c-.26-.16-.52-.33-.77-.51-.5-.45-.95-.95-1.39-1.43-.6-.66-1.22-1.32-1.84-1.83-.52.68-1.22,1.09-1.87,1.45-.25.14-.5.28-.74.44-1.04.62-1.56,1.35-1.74,2.34l-.12.76-.68-.34c-.42-.22-.69-.23-.76-.2-.14.74-.34,1.48-.53,2.22-.23.84-.45,1.7-.58,2.42.09.05.22.11.37.17.58.24,1.2.24,1.37.24h.09c.07-.01.1-.01.14-.02l.23-.06h0c.46-.03.62.2.68.42l.05-.02.45,1.01-.59.27s-.03.01-.06.02c-.02.03-.32.25-.6.54l-.1.11c-.14.14-.34.42-.5.7-.02.06-.06.12-.08.18-.02.05-.03.07-.06.12l-.02.09h0s-.06.15-.06.15l-.25-.17-.8-.05h.45l-.45-.07.07-.57v-.14s-.01-.03-.02-.08l-.19-.12c-.14.15-.24.29-.29.4-.05.07-.07.12-.09.15-.08.18-.19.32-.41.36l-.36.09-.23-.31c-.14-.19-.12-.37-.07-.54h0s.05-.14.08-.32c.01-.07.02-.14.03-.22l-.41.07.09-.65-.29-.16c-.38-.23-.84-.49-1.3-.62-.53-.18-1.22-.24-2.2-.2-.45.09-.98-.05-1.49-.17-.51-.12-.76-.16-1,.02l-1.17.89.17-.91c-.16-.05-.28-.11-.34-.16l-.41-.24c-.19.18-.43.32-.78.27l-1.01,2.84.58-5.44c.1-.83.19-1.61.05-1.99-.02-.07-.06-.12-.09-.14-.12-.03-.51.06-1.17.62l-2.32,1.96,1.46-2.66c.25-.45.59-.93.97-1.35l-.15-.1s.01-.02.02-.03c0-.01.02-.02.02-.03l-.55-.4c-.06.01-.11.03-.17.05-2.83,1.71-3.28,2.6-3.35,2.83-1.66,4.32-1.28,8.2-.66,10.71.8,3.2,2.33,6.01,4.54,8.36.23-.27.61-.58,1.24-.29.96.58,1.56,1.4,2.08,2.13.48.67,1.03,1.14,1.63,1.4l.54-.71.45.33c.55.41,1.21.85,2.07,1.37.72.43,1.58.78,2.34,1.08l-.02-.06Z"/>
      <path class="cls-10" d="M1031.32,594.79c-.7,0-1.39-.05-2.08-.12l-.14-.03c-.81-.32-1.75-.7-2.58-1.18-.67-.41-1.22-.76-1.71-1.1l-.35.46-.37-.1c-.98-.28-1.88-.96-2.59-1.96-.45-.62-.93-1.28-1.58-1.71-.01.02-.02.05-.03.07-.08.14-.17.29-.32.44l-.4.4-.4-.4c-2.61-2.59-4.4-5.75-5.32-9.37-.66-2.66-1.08-6.79.68-11.35.27-.91,1.6-2.08,3.9-3.47l.12-.06c.59-.18,1.19-.29,1.77-.31l1.23-.05-.1.12.1.03.75.14-.07.08.11.03-.33.61c-.25.44-.61.85-1,1.23.02,0,.06.01.08.02.4.1.7.41.86.84.17.43.18.96.12,1.57l.19.08c.16.09.28.19.36.29.2-.09.43-.14.71-.08l.81.16-.35.57c.15-.01.28.02.42.09l.44.23-.17.48c-.07.17-.12.33-.18.46v.02c.27.01.52.07.71.12.46.12.85.22,1.14.16,1.21-.05,2,.03,2.66.25.54.17,1.04.45,1.46.69.02-.09.06-.17.12-.23.11-.89.4-1.97.69-3.09.19-.71.38-1.45.53-2.14.08-.36.29-.66.6-.8.34-.17.74-.15,1.11-.05.33-1.01,1.01-1.8,2.08-2.44.24-.16.51-.32.78-.46.75-.43,1.4-.79,1.75-1.53l.28-.58.53.35c.91.59,1.73,1.49,2.53,2.35.43.48.86.94,1.28,1.32.17.12.41.27.66.43l.83.57c.61.37,1.2.86,1.77,1.32l.09.09c.53.71.98,1.44,1.37,2.23.48,1.03.77,1.83.95,2.6.45,1.64.62,3.46.5,5.38-.28,3.73-1.56,7.11-3.8,10.01l-.14.12-1.15.75c.03.15.05.33,0,.51l-.03.16-.72.69c-.79.46-1.63.81-2.38,1.12-.45.19-.88.36-1.26.55l.36.51-.62.28c-2.26,1.04-4.8,1.58-7.32,1.58h.02ZM1029.45,593.55c2.78.33,5.68-.08,8.24-1.15-.06-.38.16-.63.33-.78.57-.33,1.13-.57,1.73-.8.72-.29,1.46-.6,2.17-1.01l.26-.26s-.05-.11-.07-.14l-.22-.45,1.87-1.21c2.06-2.72,3.25-5.85,3.51-9.32.11-1.79-.05-3.47-.46-5.01-.17-.71-.44-1.44-.87-2.4-.34-.69-.74-1.35-1.21-1.98-.51-.43-1.06-.86-1.61-1.2l-.83-.57c-.26-.16-.52-.33-.77-.51-.5-.45-.95-.95-1.39-1.43-.6-.66-1.22-1.32-1.84-1.83-.52.68-1.22,1.09-1.87,1.45-.25.14-.5.28-.74.44-1.04.62-1.56,1.35-1.74,2.34l-.12.76-.68-.34c-.42-.22-.69-.23-.76-.2-.14.74-.34,1.48-.53,2.22-.23.84-.45,1.7-.58,2.42.09.05.22.11.37.17.58.24,1.2.24,1.37.24h.09c.07-.01.1-.01.14-.02l.23-.06h0c.46-.03.62.2.68.42l.05-.02.45,1.01-.59.27s-.03.01-.06.02c-.02.03-.32.25-.6.54l-.1.11c-.14.14-.34.42-.5.7-.02.06-.06.12-.08.18-.02.05-.03.07-.06.12l-.02.09h0s-.06.15-.06.15l-.25-.17-.8-.05h.45l-.45-.07.07-.57v-.14s-.01-.03-.02-.08l-.19-.12c-.14.15-.24.29-.29.4-.05.07-.07.12-.09.15-.08.18-.19.32-.41.36l-.36.09-.23-.31c-.14-.19-.12-.37-.07-.54h0s.05-.14.08-.32c.01-.07.02-.14.03-.22l-.41.07.09-.65-.29-.16c-.38-.23-.84-.49-1.3-.62-.53-.18-1.22-.24-2.2-.2-.45.09-.98-.05-1.49-.17-.51-.12-.76-.16-1,.02l-1.17.89.17-.91c-.16-.05-.28-.11-.34-.16l-.41-.24c-.19.18-.43.32-.78.27l-1.01,2.84.58-5.44c.1-.83.19-1.61.05-1.99-.02-.07-.06-.12-.09-.14-.12-.03-.51.06-1.17.62l-2.32,1.96,1.46-2.66c.25-.45.59-.93.97-1.35l-.15-.1s.01-.02.02-.03c0-.01.02-.02.02-.03l-.55-.4c-.06.01-.11.03-.17.05-2.83,1.71-3.28,2.6-3.35,2.83-1.66,4.32-1.28,8.2-.66,10.71.8,3.2,2.33,6.01,4.54,8.36.23-.27.61-.58,1.24-.29.96.58,1.56,1.4,2.08,2.13.48.67,1.03,1.14,1.63,1.4l.54-.71.45.33c.55.41,1.21.85,2.07,1.37.72.43,1.58.78,2.34,1.08l-.02-.06Z"/>
      <path class="cls-15" d="M1031.3,594.54c-.7,0-1.39-.05-2.08-.12l-.14-.03c-.81-.32-1.75-.7-2.58-1.18-.67-.41-1.22-.76-1.71-1.1l-.35.46-.37-.1c-.98-.28-1.88-.96-2.59-1.96-.45-.62-.93-1.28-1.58-1.71-.01.02-.02.05-.03.07-.08.14-.17.29-.32.44l-.4.4-.4-.4c-2.61-2.59-4.4-5.75-5.32-9.37-.66-2.66-1.08-6.79.68-11.35.27-.91,1.6-2.08,3.9-3.47l.12-.06c.59-.18,1.19-.29,1.77-.31l1.23-.05-.1.12.1.03.75.14-.07.08.11.03-.33.61c-.25.44-.61.85-1,1.23.02,0,.06.01.08.02.4.1.7.41.86.84.17.43.18.96.12,1.57l.19.08c.16.09.28.19.36.29.2-.09.43-.14.71-.08l.81.16-.35.57c.15-.01.28.02.42.09l.44.23-.17.48c-.07.17-.12.33-.18.46v.02c.27.01.52.07.71.12.46.12.85.22,1.14.16,1.21-.05,2,.03,2.66.25.54.17,1.04.45,1.46.69.02-.09.06-.17.12-.23.11-.89.4-1.97.69-3.09.19-.71.38-1.45.53-2.14.08-.36.29-.66.6-.8.34-.17.74-.15,1.11-.05.33-1.01,1.01-1.8,2.08-2.44.24-.16.51-.32.78-.46.75-.43,1.4-.79,1.75-1.53l.28-.58.53.35c.91.59,1.73,1.49,2.53,2.35.43.48.86.94,1.28,1.32.17.12.41.27.66.43l.83.57c.61.37,1.2.86,1.77,1.32l.09.09c.53.71.98,1.44,1.37,2.23.48,1.03.77,1.83.95,2.6.45,1.64.62,3.46.5,5.38-.28,3.73-1.56,7.11-3.8,10.01l-.14.12-1.15.75c.03.15.05.33,0,.51l-.03.16-.72.69c-.79.46-1.63.81-2.38,1.12-.45.19-.88.36-1.26.55l.36.51-.62.28c-2.26,1.04-4.8,1.58-7.32,1.58h.02ZM1029.43,593.29c2.78.33,5.68-.08,8.24-1.15-.06-.38.16-.63.33-.78.57-.33,1.13-.57,1.73-.8.72-.29,1.46-.6,2.17-1.01l.26-.26s-.05-.11-.07-.14l-.22-.45,1.87-1.21c2.06-2.72,3.25-5.85,3.51-9.32.11-1.79-.05-3.47-.46-5.01-.17-.71-.44-1.44-.87-2.4-.34-.69-.74-1.35-1.21-1.98-.51-.43-1.06-.86-1.61-1.2l-.83-.57c-.26-.16-.52-.33-.77-.51-.5-.45-.95-.95-1.39-1.43-.6-.66-1.22-1.32-1.84-1.83-.52.68-1.22,1.09-1.87,1.45-.25.14-.5.28-.74.44-1.04.62-1.56,1.35-1.74,2.34l-.12.76-.68-.34c-.42-.22-.69-.23-.76-.2-.14.74-.34,1.48-.53,2.22-.23.84-.45,1.7-.58,2.42.09.05.22.11.37.17.58.24,1.2.24,1.37.24h.09c.07-.01.1-.01.14-.02l.23-.06h0c.46-.03.62.2.68.42l.05-.02.45,1.01-.59.27s-.03.01-.06.02c-.02.03-.32.25-.6.54l-.1.11c-.14.14-.34.42-.5.7-.02.06-.06.12-.08.18-.02.05-.03.07-.06.12l-.02.09h0s-.06.15-.06.15l-.25-.17-.8-.05h.45l-.45-.07.07-.57v-.14s-.01-.03-.02-.08l-.19-.12c-.14.15-.24.29-.29.4-.05.07-.07.12-.09.15-.08.18-.19.32-.41.36l-.36.09-.23-.31c-.14-.19-.12-.37-.07-.54h0s.05-.14.08-.32c.01-.07.02-.14.03-.22l-.41.07.09-.65-.29-.16c-.38-.23-.84-.49-1.3-.62-.53-.18-1.22-.24-2.2-.2-.45.09-.98-.05-1.49-.17-.51-.12-.76-.16-1,.02l-1.17.89.17-.91c-.16-.05-.28-.11-.34-.16l-.41-.24c-.19.18-.43.32-.78.27l-1.01,2.84.58-5.44c.1-.83.19-1.61.05-1.99-.02-.07-.06-.12-.09-.14-.12-.03-.51.06-1.17.62l-2.32,1.96,1.46-2.66c.25-.45.59-.93.97-1.35l-.15-.1s.01-.02.02-.03c0-.01.02-.02.02-.03l-.55-.4c-.06.01-.11.03-.17.05-2.83,1.71-3.28,2.6-3.35,2.83-1.66,4.32-1.28,8.2-.66,10.71.8,3.2,2.33,6.01,4.54,8.36.23-.27.61-.58,1.24-.29.96.58,1.56,1.4,2.08,2.13.48.67,1.03,1.14,1.63,1.4l.54-.71.45.33c.55.41,1.21.85,2.07,1.37.72.43,1.58.78,2.34,1.08l-.02-.06Z"/>
      <path class="cls-6" d="M1019.15,588.89c.33-.33.37-.92.94-.66.78.48,1.31,1.2,1.86,1.95.53.75,1.28,1.45,2.29,1.74l.45-.6c.65.48,1.36.94,2.12,1.39.76.44,1.62.8,2.49,1.14,3.27.4,6.48-.2,9.11-1.41-.16-.23-.27-.45-.05-.65,1.02-.57,2.52-1.01,3.88-1.8.17-.17.33-.33.5-.49.06-.23-.07-.46-.14-.61.55-.36,1.05-.69,1.53-1,2.24-2.92,3.42-6.25,3.68-9.71.11-1.73,0-3.5-.49-5.21-.2-.85-.54-1.69-.91-2.48-.38-.78-.83-1.48-1.31-2.14-.59-.49-1.14-.93-1.72-1.29-.27-.19-.54-.37-.8-.54-.27-.16-.52-.33-.75-.5-1.19-1.11-2.4-2.76-3.73-3.62-.59,1.19-1.77,1.57-2.75,2.23-1,.6-1.75,1.41-1.98,2.72-.52-.26-1.39-.53-1.55.2-.46,2.16-1.34,4.65-1.26,6,.09.31-.28-1.04-.01-.19-.05.2.03.37.16.53l.06.06h0l-.37-1.01h0v.02l.03.07c.03.09.05.16.03.09.16.46.19,1.32.09,1.81-.08.52-.2.58.02.19.2-.36.8-1.05,1.38-1.4.26-.18.54-.29.65-.33l.08-.02h.02c-.16.03,1.35-.32.71-.17h-.02l-.07.02c-.08.01-.12.01-.33.03-.1,0-.86,0-1.58-.28-.35-.14-.62-.29-.63-.32-.05-.03.22.15.5.54.31.41.62.97.75,1.48.03.09.06.2.08.32.01.14.02.12.03.22,0,.22,0,.09,0,.17h0l-.08.61h0v-.08s.01.02.05-.1c.06-.18.08-.19.18-.42.16-.28.4-.63.55-.79l.12-.15c.4-.41.81-.69.88-.71.11-.06-.27.14-.68.18-.19.05-.43.07-.67.07-.16.03-.63,0-.96-.06-.45-.06-.84.01-1.29.08.05-.23.15-.29-.32-.48-.48-.27-1.04-.63-1.67-.83-.65-.22-1.44-.26-2.38-.24-.44.08-.89-.05-1.38-.17-.48-.11-.96-.22-1.43.14.11-.61.28-.89.5-1.48-.33-.17-.41.34-.5.78-.09.43-.14.83-.71.5.18-.29.23-.63.27-.98s.02-.75.22-1.05c-.53-.1-.84.48-1.1,1.03-.28.55-.4,1.09-.89.95-.08-.23.33-.71.7-1.13.35-.43.57-.81.05-1.12-.24-.14-.52.63-.66,1.02.14-1.26.34-2.34.09-2.98-.23-.61-.88-.81-2.16.25.25-.46.63-.97,1.09-1.43.45-.46.89-.91,1.17-1.38h-.02c-.36.38-1.13,1-1.43,1.41.36-.51.76-1.01,1.15-1.48-.19-.03-.4-.06-.6-.06-.41.29-.8.62-1.11,1.04.26-.35.53-.71.8-1.05-.51.01-1.06.11-1.62.28-1.58.95-3.37,2.23-3.67,3.19-1.47,3.8-1.49,7.66-.67,11.01.85,3.37,2.5,6.47,5.16,9.11h.02Z"/>
    </g>
    <g>
      <path class="cls-10" d="M983.46,594.37c-.7,0-1.39-.05-2.08-.12l-.14-.03c-.81-.32-1.75-.7-2.58-1.18-.67-.41-1.22-.76-1.71-1.1l-.35.46-.37-.1c-.98-.28-1.88-.96-2.59-1.96-.45-.62-.93-1.28-1.58-1.71-.01.02-.02.05-.03.07-.08.14-.17.29-.32.44l-.4.4-.4-.4c-2.61-2.59-4.4-5.75-5.32-9.37-.66-2.66-1.08-6.79.68-11.35.27-.91,1.6-2.08,3.9-3.47l.12-.06c.59-.18,1.19-.29,1.77-.31l1.23-.05-.1.12.1.03.75.14-.07.08.11.03-.33.61c-.25.44-.61.85-1,1.23.02,0,.06.01.08.02.4.1.7.41.86.84.17.43.18.96.12,1.57l.19.08c.16.09.28.19.36.29.2-.09.43-.14.71-.08l.81.16-.35.57c.15-.01.28.02.42.09l.44.23-.17.48c-.07.17-.12.33-.18.46v.02c.27.01.52.07.71.12.46.12.85.22,1.14.16,1.21-.05,2,.03,2.66.25.54.17,1.04.45,1.46.69.02-.09.06-.17.12-.23.11-.89.4-1.97.69-3.09.19-.71.38-1.45.53-2.14.08-.36.29-.66.6-.8.34-.17.74-.15,1.11-.05.33-1.01,1.01-1.8,2.08-2.44.24-.16.51-.32.78-.46.75-.43,1.4-.79,1.75-1.53l.28-.58.53.35c.91.59,1.73,1.49,2.53,2.35.43.48.86.94,1.28,1.32.17.12.41.27.66.43l.83.57c.61.37,1.2.86,1.77,1.32l.09.09c.53.71.98,1.44,1.37,2.23.48,1.03.77,1.83.95,2.6.45,1.64.62,3.46.5,5.38-.28,3.73-1.56,7.11-3.8,10.01l-.14.12-1.15.75c.03.15.05.33,0,.51l-.03.16-.72.69c-.79.46-1.63.81-2.38,1.12-.45.19-.88.36-1.26.55l.36.51-.62.28c-2.26,1.04-4.8,1.58-7.32,1.58h.02ZM981.58,593.12c2.78.33,5.68-.08,8.24-1.15-.06-.38.16-.63.33-.78.57-.33,1.13-.57,1.73-.8.72-.29,1.46-.6,2.17-1.01l.26-.26s-.05-.11-.07-.14l-.22-.45,1.87-1.21c2.06-2.72,3.25-5.85,3.51-9.32.11-1.79-.05-3.47-.46-5.01-.17-.71-.44-1.44-.87-2.4-.34-.69-.74-1.35-1.21-1.98-.51-.43-1.06-.86-1.61-1.2l-.83-.57c-.26-.16-.52-.33-.77-.51-.5-.45-.95-.95-1.39-1.43-.6-.66-1.22-1.32-1.84-1.83-.52.68-1.22,1.09-1.87,1.45-.25.14-.5.28-.74.44-1.04.62-1.56,1.35-1.74,2.34l-.12.76-.68-.34c-.42-.22-.69-.23-.76-.2-.14.74-.34,1.48-.53,2.22-.23.84-.45,1.7-.58,2.42.09.05.22.11.37.17.58.24,1.2.24,1.37.24h.09c.07-.01.1-.01.14-.02l.23-.06h0c.46-.03.62.2.68.42l.05-.02.45,1.01-.59.27s-.03.01-.06.02c-.02.03-.32.25-.6.54l-.1.11c-.14.14-.34.42-.5.7-.02.06-.06.12-.08.18-.02.05-.03.07-.06.12l-.02.09h0s-.06.15-.06.15l-.25-.17-.8-.05h.45l-.45-.07.07-.57v-.14s-.01-.03-.02-.08l-.19-.12c-.14.15-.24.29-.29.4-.05.07-.07.12-.09.15-.08.18-.19.32-.41.36l-.36.09-.23-.31c-.14-.19-.12-.37-.07-.54h0s.05-.14.08-.32c.01-.07.02-.14.03-.22l-.41.07.09-.65-.29-.16c-.38-.23-.84-.49-1.3-.62-.53-.18-1.22-.24-2.2-.2-.45.09-.98-.05-1.49-.17-.51-.12-.76-.16-1,.02l-1.17.89.17-.91c-.16-.05-.28-.11-.34-.16l-.41-.24c-.19.18-.43.32-.78.27l-1.01,2.84.58-5.44c.1-.83.19-1.61.05-1.99-.02-.07-.06-.12-.09-.14-.12-.03-.51.06-1.17.62l-2.32,1.96,1.46-2.66c.25-.45.59-.93.97-1.35l-.15-.1s.01-.02.02-.03c0-.01.02-.02.02-.03l-.55-.4c-.06.01-.11.03-.17.05-2.83,1.71-3.28,2.6-3.35,2.83-1.66,4.32-1.28,8.2-.66,10.71.8,3.2,2.33,6.01,4.54,8.36.23-.27.61-.58,1.24-.29.96.58,1.56,1.4,2.08,2.13.48.67,1.03,1.14,1.63,1.4l.54-.71.45.33c.55.41,1.21.85,2.07,1.37.72.43,1.58.78,2.34,1.08l-.02-.06Z"/>
      <path class="cls-10" d="M983.48,594.79c-.7,0-1.39-.05-2.08-.12l-.14-.03c-.81-.32-1.75-.7-2.58-1.18-.67-.41-1.22-.76-1.71-1.1l-.35.46-.37-.1c-.98-.28-1.88-.96-2.59-1.96-.45-.62-.93-1.28-1.58-1.71-.01.02-.02.05-.03.07-.08.14-.17.29-.32.44l-.4.4-.4-.4c-2.61-2.59-4.4-5.75-5.32-9.37-.66-2.66-1.08-6.79.68-11.35.27-.91,1.6-2.08,3.9-3.47l.12-.06c.59-.18,1.19-.29,1.77-.31l1.23-.05-.1.12.1.03.75.14-.07.08.11.03-.33.61c-.25.44-.61.85-1,1.23.02,0,.06.01.08.02.4.1.7.41.86.84.17.43.18.96.12,1.57l.19.08c.16.09.28.19.36.29.2-.09.43-.14.71-.08l.81.16-.35.57c.15-.01.28.02.42.09l.44.23-.17.48c-.07.17-.12.33-.18.46v.02c.27.01.52.07.71.12.46.12.85.22,1.14.16,1.21-.05,2,.03,2.66.25.54.17,1.04.45,1.46.69.02-.09.06-.17.12-.23.11-.89.4-1.97.69-3.09.19-.71.38-1.45.53-2.14.08-.36.29-.66.6-.8.34-.17.74-.15,1.11-.05.33-1.01,1.01-1.8,2.08-2.44.24-.16.51-.32.78-.46.75-.43,1.4-.79,1.75-1.53l.28-.58.53.35c.91.59,1.73,1.49,2.53,2.35.43.48.86.94,1.28,1.32.17.12.41.27.66.43l.83.57c.61.37,1.2.86,1.77,1.32l.09.09c.53.71.98,1.44,1.37,2.23.48,1.03.77,1.83.95,2.6.45,1.64.62,3.46.5,5.38-.28,3.73-1.56,7.11-3.8,10.01l-.14.12-1.15.75c.03.15.05.33,0,.51l-.03.16-.72.69c-.79.46-1.63.81-2.38,1.12-.45.19-.88.36-1.26.55l.36.51-.62.28c-2.26,1.04-4.8,1.58-7.32,1.58h.02ZM981.6,593.55c2.78.33,5.68-.08,8.24-1.15-.06-.38.16-.63.33-.78.57-.33,1.13-.57,1.73-.8.72-.29,1.46-.6,2.17-1.01l.26-.26s-.05-.11-.07-.14l-.22-.45,1.87-1.21c2.06-2.72,3.25-5.85,3.51-9.32.11-1.79-.05-3.47-.46-5.01-.17-.71-.44-1.44-.87-2.4-.34-.69-.74-1.35-1.21-1.98-.51-.43-1.06-.86-1.61-1.2l-.83-.57c-.26-.16-.52-.33-.77-.51-.5-.45-.95-.95-1.39-1.43-.6-.66-1.22-1.32-1.84-1.83-.52.68-1.22,1.09-1.87,1.45-.25.14-.5.28-.74.44-1.04.62-1.56,1.35-1.74,2.34l-.12.76-.68-.34c-.42-.22-.69-.23-.76-.2-.14.74-.34,1.48-.53,2.22-.23.84-.45,1.7-.58,2.42.09.05.22.11.37.17.58.24,1.2.24,1.37.24h.09c.07-.01.1-.01.14-.02l.23-.06h0c.46-.03.62.2.68.42l.05-.02.45,1.01-.59.27s-.03.01-.06.02c-.02.03-.32.25-.6.54l-.1.11c-.14.14-.34.42-.5.7-.02.06-.06.12-.08.18-.02.05-.03.07-.06.12l-.02.09h0s-.06.15-.06.15l-.25-.17-.8-.05h.45l-.45-.07.07-.57v-.14s-.01-.03-.02-.08l-.19-.12c-.14.15-.24.29-.29.4-.05.07-.07.12-.09.15-.08.18-.19.32-.41.36l-.36.09-.23-.31c-.14-.19-.12-.37-.07-.54h0s.05-.14.08-.32c.01-.07.02-.14.03-.22l-.41.07.09-.65-.29-.16c-.38-.23-.84-.49-1.3-.62-.53-.18-1.22-.24-2.2-.2-.45.09-.98-.05-1.49-.17-.51-.12-.76-.16-1,.02l-1.17.89.17-.91c-.16-.05-.28-.11-.34-.16l-.41-.24c-.19.18-.43.32-.78.27l-1.01,2.84.58-5.44c.1-.83.19-1.61.05-1.99-.02-.07-.06-.12-.09-.14-.12-.03-.51.06-1.17.62l-2.32,1.96,1.46-2.66c.25-.45.59-.93.97-1.35l-.15-.1s.01-.02.02-.03c0-.01.02-.02.02-.03l-.55-.4c-.06.01-.11.03-.17.05-2.83,1.71-3.28,2.6-3.35,2.83-1.66,4.32-1.28,8.2-.66,10.71.8,3.2,2.33,6.01,4.54,8.36.23-.27.61-.58,1.24-.29.96.58,1.56,1.4,2.08,2.13.48.67,1.03,1.14,1.63,1.4l.54-.71.45.33c.55.41,1.21.85,2.07,1.37.72.43,1.58.78,2.34,1.08l-.02-.06Z"/>
      <path class="cls-15" d="M983.46,594.54c-.7,0-1.39-.05-2.08-.12l-.14-.03c-.81-.32-1.75-.7-2.58-1.18-.67-.41-1.22-.76-1.71-1.1l-.35.46-.37-.1c-.98-.28-1.88-.96-2.59-1.96-.45-.62-.93-1.28-1.58-1.71-.01.02-.02.05-.03.07-.08.14-.17.29-.32.44l-.4.4-.4-.4c-2.61-2.59-4.4-5.75-5.32-9.37-.66-2.66-1.08-6.79.68-11.35.27-.91,1.6-2.08,3.9-3.47l.12-.06c.59-.18,1.19-.29,1.77-.31l1.23-.05-.1.12.1.03.75.14-.07.08.11.03-.33.61c-.25.44-.61.85-1,1.23.02,0,.06.01.08.02.4.1.7.41.86.84.17.43.18.96.12,1.57l.19.08c.16.09.28.19.36.29.2-.09.43-.14.71-.08l.81.16-.35.57c.15-.01.28.02.42.09l.44.23-.17.48c-.07.17-.12.33-.18.46v.02c.27.01.52.07.71.12.46.12.85.22,1.14.16,1.21-.05,2,.03,2.66.25.54.17,1.04.45,1.46.69.02-.09.06-.17.12-.23.11-.89.4-1.97.69-3.09.19-.71.38-1.45.53-2.14.08-.36.29-.66.6-.8.34-.17.74-.15,1.11-.05.33-1.01,1.01-1.8,2.08-2.44.24-.16.51-.32.78-.46.75-.43,1.4-.79,1.75-1.53l.28-.58.53.35c.91.59,1.73,1.49,2.53,2.35.43.48.86.94,1.28,1.32.17.12.41.27.66.43l.83.57c.61.37,1.2.86,1.77,1.32l.09.09c.53.71.98,1.44,1.37,2.23.48,1.03.77,1.83.95,2.6.45,1.64.62,3.46.5,5.38-.28,3.73-1.56,7.11-3.8,10.01l-.14.12-1.15.75c.03.15.05.33,0,.51l-.03.16-.72.69c-.79.46-1.63.81-2.38,1.12-.45.19-.88.36-1.26.55l.36.51-.62.28c-2.26,1.04-4.8,1.58-7.32,1.58h.02ZM981.58,593.29c2.78.33,5.68-.08,8.24-1.15-.06-.38.16-.63.33-.78.57-.33,1.13-.57,1.73-.8.72-.29,1.46-.6,2.17-1.01l.26-.26s-.05-.11-.07-.14l-.22-.45,1.87-1.21c2.06-2.72,3.25-5.85,3.51-9.32.11-1.79-.05-3.47-.46-5.01-.17-.71-.44-1.44-.87-2.4-.34-.69-.74-1.35-1.21-1.98-.51-.43-1.06-.86-1.61-1.2l-.83-.57c-.26-.16-.52-.33-.77-.51-.5-.45-.95-.95-1.39-1.43-.6-.66-1.22-1.32-1.84-1.83-.52.68-1.22,1.09-1.87,1.45-.25.14-.5.28-.74.44-1.04.62-1.56,1.35-1.74,2.34l-.12.76-.68-.34c-.42-.22-.69-.23-.76-.2-.14.74-.34,1.48-.53,2.22-.23.84-.45,1.7-.58,2.42.09.05.22.11.37.17.58.24,1.2.24,1.37.24h.09c.07-.01.1-.01.14-.02l.23-.06h0c.46-.03.62.2.68.42l.05-.02.45,1.01-.59.27s-.03.01-.06.02c-.02.03-.32.25-.6.54l-.1.11c-.14.14-.34.42-.5.7-.02.06-.06.12-.08.18-.02.05-.03.07-.06.12l-.02.09h0s-.06.15-.06.15l-.25-.17-.8-.05h.45l-.45-.07.07-.57v-.14s-.01-.03-.02-.08l-.19-.12c-.14.15-.24.29-.29.4-.05.07-.07.12-.09.15-.08.18-.19.32-.41.36l-.36.09-.23-.31c-.14-.19-.12-.37-.07-.54h0s.05-.14.08-.32c.01-.07.02-.14.03-.22l-.41.07.09-.65-.29-.16c-.38-.23-.84-.49-1.3-.62-.53-.18-1.22-.24-2.2-.2-.45.09-.98-.05-1.49-.17-.51-.12-.76-.16-1,.02l-1.17.89.17-.91c-.16-.05-.28-.11-.34-.16l-.41-.24c-.19.18-.43.32-.78.27l-1.01,2.84.58-5.44c.1-.83.19-1.61.05-1.99-.02-.07-.06-.12-.09-.14-.12-.03-.51.06-1.17.62l-2.32,1.96,1.46-2.66c.25-.45.59-.93.97-1.35l-.15-.1s.01-.02.02-.03c0-.01.02-.02.02-.03l-.55-.4c-.06.01-.11.03-.17.05-2.83,1.71-3.28,2.6-3.35,2.83-1.66,4.32-1.28,8.2-.66,10.71.8,3.2,2.33,6.01,4.54,8.36.23-.27.61-.58,1.24-.29.96.58,1.56,1.4,2.08,2.13.48.67,1.03,1.14,1.63,1.4l.54-.71.45.33c.55.41,1.21.85,2.07,1.37.72.43,1.58.78,2.34,1.08l-.02-.06Z"/>
      <path class="cls-14" d="M971.31,588.89c.33-.33.37-.92.94-.66.78.48,1.31,1.2,1.86,1.95.53.75,1.28,1.45,2.29,1.74l.45-.6c.65.48,1.36.94,2.12,1.39.76.44,1.62.8,2.49,1.14,3.27.4,6.48-.2,9.11-1.41-.16-.23-.27-.45-.05-.65,1.02-.57,2.52-1.01,3.88-1.8.17-.17.33-.33.5-.49.06-.23-.07-.46-.14-.61.55-.36,1.05-.69,1.53-1,2.24-2.92,3.42-6.25,3.68-9.71.11-1.73,0-3.5-.49-5.21-.2-.85-.54-1.69-.91-2.48-.38-.78-.83-1.48-1.31-2.14-.59-.49-1.14-.93-1.72-1.29-.27-.19-.54-.37-.8-.54-.27-.16-.52-.33-.75-.5-1.19-1.11-2.4-2.76-3.73-3.62-.59,1.19-1.77,1.57-2.75,2.23-1,.6-1.75,1.41-1.98,2.72-.52-.26-1.39-.53-1.55.2-.46,2.16-1.34,4.65-1.26,6,.09.31-.28-1.04-.01-.19-.05.2.03.37.16.53l.06.06h0l-.37-1.01h0v.02l.03.07c.03.09.05.16.03.09.16.46.19,1.32.09,1.81-.08.52-.2.58.02.19.2-.36.8-1.05,1.38-1.4.26-.18.54-.29.65-.33l.08-.02h.02c-.16.03,1.35-.32.71-.17h-.02l-.07.02c-.08.01-.12.01-.33.03-.1,0-.86,0-1.58-.28-.35-.14-.62-.29-.63-.32-.05-.03.22.15.5.54.31.41.62.97.75,1.48.03.09.06.2.08.32.01.14.02.12.03.22,0,.22,0,.09,0,.17h0l-.08.61h0v-.08s.01.02.05-.1c.06-.18.08-.19.18-.42.16-.28.4-.63.55-.79l.12-.15c.4-.41.81-.69.88-.71.11-.06-.27.14-.68.18-.19.05-.43.07-.67.07-.16.03-.63,0-.96-.06-.45-.06-.84.01-1.29.08.05-.23.15-.29-.32-.48-.48-.27-1.04-.63-1.67-.83-.65-.22-1.44-.26-2.38-.24-.44.08-.89-.05-1.38-.17-.48-.11-.96-.22-1.43.14.11-.61.28-.89.5-1.48-.33-.17-.41.34-.5.78-.09.43-.14.83-.71.5.18-.29.23-.63.27-.98s.02-.75.22-1.05c-.53-.1-.84.48-1.1,1.03-.28.55-.4,1.09-.89.95-.08-.23.33-.71.7-1.13.35-.43.57-.81.05-1.12-.24-.14-.52.63-.66,1.02.14-1.26.34-2.34.09-2.98-.23-.61-.88-.81-2.16.25.25-.46.63-.97,1.09-1.43.45-.46.89-.91,1.17-1.38h-.02c-.36.38-1.13,1-1.43,1.41.36-.51.76-1.01,1.15-1.48-.19-.03-.4-.06-.6-.06-.41.29-.8.62-1.11,1.04.26-.35.53-.71.8-1.05-.51.01-1.06.11-1.62.28-1.58.95-3.37,2.23-3.67,3.19-1.47,3.8-1.49,7.66-.67,11.01.85,3.37,2.5,6.47,5.16,9.11h.02Z"/>
    </g>
  </g>
  <g>
    <ellipse class="cls-10" cx="321.89" cy="350.31" rx="249.37" ry="247.13"/>
    <ellipse class="cls-10" cx="317.89" cy="347.31" rx="249.37" ry="247.13"/>
    <ellipse class="cls-13" cx="319.47" cy="348.88" rx="249.37" ry="247.13"/>
    <g>
      <g>
        <path class="cls-9" d="M340.13,108.57c2.24.48,3.24,1.73,3.47,4.16.58,6.14,1.43,12.26,2.28,18.38,1.62,11.68,6.09,21.9,14.48,30.51,7.35,7.55,13.01,16.67,21.44,23.26,12.25,9.57,26.41,15.52,40.35,22.05,19.62,9.19,39.16,18.73,54.82,34.36,5.35,5.34,9.4,11.46,11.79,18.64.39,1.18,1.25,2.6.08,3.51-1.46,1.14-2.68-.29-3.52-1.25-8.04-9.16-18.46-15.58-27.3-23.82-5.97-5.56-13.52-8.67-20.39-12.84-9.18-5.57-18.94-9.98-28.59-14.61-2.26-1.09-4.64-1.96-7.02-2.79-11.01-3.87-19.32-11.73-27.98-19.02-7.47-6.3-13.34-14.04-18.94-21.99-.79-1.12-1.37-2.41-2.68-3.18-.91.74-.09,1.42.21,1.87,11.69,17.62,25.03,33.6,44.42,43.27,9.81,4.89,19.82,9.4,29.71,14.13,19.8,9.47,36.92,22.6,52.12,38.33,2.98,3.08,6,6.13,8.92,9.27,11.78,12.66,17.2,27.59,15.86,44.99,2.26-3.11,2.41-6.75,2.73-10.26.27-3,.14-6.05.11-9.07-.04-4.12,0-8.18.6-12.32,1.6-10.96-1.39-21.28-5.6-31.24-2.36-5.59-4.4-11.24-5.85-17.14-1.14-4.67-3.13-8.88-6.36-12.69-3.48-4.11-6.16-8.9-9.17-13.4-5.83-8.72-14.49-13.88-23.51-18.53-18.04-9.3-36.76-17.17-55.04-25.95-14.67-7.05-26.87-17.35-35.75-31.18-3.86-6.02-6.2-12.56-6.63-19.85-.18-3.13.81-3.99,3.48-3.49,4.7.89,9.43,1.71,14.04,2.97,32.87,8.92,62.51,23.97,88,46.79,10.18,9.12,17.24,20.69,24.87,31.81,13.98,20.4,22.54,43,26.93,67.22,2.49,13.77,1.8,27.6-.05,41.41-1.58,11.78-5.09,22.99-11.8,32.76-7.07,10.29-15.05,19.94-26.52,25.86-2.35,1.21-4.66,2.5-6.93,3.85-3.38,2-3.31,5.88-4.15,8.94-6.75,24.59-19.83,45.3-37.61,63.32-9.94,10.08-20.36,19.56-32.11,27.51-15.22,10.29-31.89,15.94-50.36,15.88-1.5,0-3.01-.2-4.48-.49-4.7-.9-6.28-4.28-4.23-8.67.69-1.49,1.84-1.55,3.12-1.47,24.15,1.55,44.66-6.91,62.72-22.47,4-3.44,3.52-7.59,2.77-11.78-2.39-13.5-.3-26.74,3.2-39.59,3.36-12.32,13.21-20.03,23.28-26.91,14.53-9.93,26.46-21.86,31.35-39.29,2.81-10.04,2.78-20.43,2.13-30.78-.58-9.24-2.09-18.26-6.5-26.6-1.3-2.47-3.05-4.05-5.57-5.3-10.8-5.36-21.9-9.85-33.96-11.11-15.76-1.64-30.73.52-43.55,10.87-9.47,7.65-13.71,18.08-15.65,29.72-.84,5-.71,10.04-.8,15.08-.31,16.98.68,33.97-.63,50.95-.17,2.26,2.02,4.45,4.44,5.08,2.46.64,2.91-1.77,3.78-3.41,1.91-3.59-.19-6.86-.73-10.25-.2-1.22-1.03-2.71.32-3.46,1.51-.85,2.91.19,4.02,1.29,3.17,3.16,3.86,12.64,1.29,17.26-3.34,5.99-7.08,7.8-13.76,6.27-4.05-.93-7.18-.05-9.46,3.53-1.08,1.7-2.3,3.32-3.4,5.01-1.13,1.73-2.72,2.09-4.62,1.68s-2.03-1.92-2.31-3.46c-.54-3.04.23-6.04.22-9.05,0-1.36.94-1.87,2.09-2.33,1.98-.79,3.98-1.62,5.81-2.7,5.92-3.5,5.87-3.54,4.45-10.24-.26-1.22-.29-2.5-.29-3.76,0-17.16-.15-34.32.08-51.48.14-10.19,2.44-20,7.11-29.13,7.82-15.28,21.05-23.05,37.39-25.83,14.97-2.55,29.64-.77,43.72,5.06,4.17,1.73,8.21,3.77,12.82,5.91-2.61-5.44-6.47-8.91-10.93-11.97-12.01-8.24-24.99-14.6-38.26-20.47-24.64-10.9-43.82-28.03-57.25-51.37-6.06-10.54-9.25-22-9.08-34.3.12-8.33.01-16.65,0-24.98,0-1.9.01-3.79,1.02-5.51h1.51l-.03.02ZM463.88,345.64c-2.46,3.51-4.66,7.16-7.26,10.56-6.09,7.96-14.28,13.47-22.28,19.12-21.48,15.17-24.58,31.5-21.1,58.18.34,2.6,1.7,3.32,3.71,1.17,2.41-2.57,4.78-5.18,7.17-7.78,13.95-15.2,25.16-32.1,31.66-51.82,3.18-9.65,6.96-19.15,8.11-29.44h0ZM473.2,349.03c18.03-8.23,24.12-29.99,19.24-47.91-.82,2.71-1.5,4.97-2.17,7.23-1.8,6.1-3.97,12.45-8.94,16.32-6.17,6.17-6.94,14.48-6.94,14.48-.22,2.11-.83,4.18-1.23,6.28-.23,1.19-.7,2.41.03,3.61h0ZM472.42,182.33c-.83-2.56-2.18-3.82-3.47-5.12-8.78-8.85-15.97-14.15-26.94-19.7-14.92-7.56-33.3-14.18-48.61-20.96-5.45-2.41-11.47-5.44-17.08-8.84.97,3,6.66,6.48,8.63,7.75,8.2,5.26,16.11,7.18,25,10.99,12.95,5.55,21.48,8.86,33.66,16.05,9.84,5.81,19.01,12.6,28.81,19.84h0ZM473.96,272.76c-.16.71-.37,1.09-.29,1.39,3.64,14.27,4.85,25.58,3.35,40.22-.1,1.01-.87,4.37.51,4.72,1.14.29,3.04-3.77,3.64-4.7,4.01-6.23,4.62-9.21,6.5-16.27,1.47-5.5.52-10.08-3.68-14.04-3.6-3.4-5.82-8.08-10.03-11.32Z"/>
        <path class="cls-9" d="M426.95,561.52c3.09-5.58,5.89-11.29,9.29-16.68,10.3-16.3,24.02-28.37,42.37-34.86,6.34-2.24,12.78-3.83,19.58-3.43,1.22.07,2.73-.3,3.28,1.22.56,1.57-.59,2.59-1.62,3.54-1.44,1.31-3.21,1.97-5.05,2.45-12.8,3.31-24.85,8.18-34.77,17.25-8.36,7.63-14.77,16.9-20.81,26.33-4.14,6.46-9.94,9.69-16.96,11.56-2.54.68-1.97-1.23-2.09-2.42-.63-6.58,1.81-12.63,3.23-18.88,3.68-16.16,12.19-29.6,23.87-40.83,7.77-7.47,16.59-13.95,26.03-19.36,2.31-1.32,3.2-2.77,3.09-5.36-.67-15.68,7.45-26.11,20.32-33.64,10.68-6.24,22.75-6.98,34.57-8.71,1.86-.27,2.3.75,1.97,2.22-3.27,14.76-5.86,29.73-16.99,41.36-7.12,7.44-15.96,10.84-25.76,12.17-3.37.46-6.86-.31-9.42-2.99-1.66-1.74-3.13-1.19-4.6.09-12.46,10.83-25.23,21.41-35.1,34.8-7.5,10.17-11.25,22.05-14.42,34.14v.03ZM490.72,486.82c8.42-.78,15.22-3.42,21.45-8.59,8.81-7.31,9.21-17.67,11.61-27.41.15-.62.15-1.3-.47-1.69-.69-.43-1.19.07-1.61.54s-.75,1.01-1.14,1.51c-9.11,11.85-18.03,23.88-30.61,32.45-.79.54-1.39,1.2-.9,2.19.45.91,1.36,1.02,1.67,1ZM483.74,475.47c-.17.71-.43,1.72.46,1.98,2.79.83,7.09-1,30.97-25.61,0,0,5.02-4.79,4.64-5.43-.39-.66-.99-.53-1.65-.33-9.22,2.83-17.89,6.82-25.47,12.83-5.26,4.17-8.19,9.82-8.95,16.56Z"/>
        <path class="cls-9" d="M409.38,561.35c.88-16.97,4.4-33.77,11.52-49.93,9.8-22.23,22.96-42.55,34.99-63.51,6.71-11.69,13.8-23.17,21.65-34.16,1.16-1.63,1.28-3.18.26-5.22-6.58-13.15-2.72-29.87,8.22-39.63,7.63-6.8,16.65-10.73,25.88-14.4,4.91-1.96,10.02-3.46,14.62-6.13,2-1.15,2.84-.41,2.99,1.54,1.48,19.2-.51,37.73-13.46,53.06-6.21,7.35-14.21,12.57-24.87,10.26-2.96-.64-4.95.65-6.65,3.12-10.78,15.68-20.09,32.22-29.24,48.89-7.2,13.11-14.58,26.14-21.04,39.61-7.36,15.33-13.22,31.28-16.14,48.19-1.01,5.82-2.47,11.56-2.97,17.48-.15,1.79-.85,3.67-3.15,3.54-2.09-.12-1.98-2.11-2.12-3.49-.31-2.88-.33-5.78-.49-9.23h0ZM481.17,389.54c-.11,3.07,2.02,12.06,3.83,12.28,1.63.2,2.28-1.18,2.88-2.49,4.59-10.06,11.3-18.51,19.1-26.31,4.17-4.17,8.02-8.68,12.4-12.67.73-.67,1.71-1.39,1.09-2.53-.54-1-1.54-.73-2.32-.26-8.22,4.95-17.42,8.05-25.45,13.23-6.59,4.25-11.51,10.16-11.53,18.75ZM523.82,364.77c.05-1.01.13-2.01.15-3.02.02-1.03.92-2.51-.77-2.82-1.43-.26-2.46,2.37-2.87,3.38-7.38,10.64-9.71,10.06-23.2,37.89-.72.85-1.67,1.73-1.07,2.99.69,1.45,2.11,1.27,3.32,1.03,5.81-1.14,10.76-4.15,14.13-8.79,6.59-9.06,9.62-19.53,10.31-30.67h0Z"/>
        <path class="cls-9" d="M411.3,310.25c-8.46.13-16.02-3.2-23.53-6.38-5.52-2.33-10.72-3.43-16.11.03-.8.52-1.8,1.15-2.79.33-.95-.79-.53-1.83-.35-2.82,1.9-10.6,7.16-18.65,17.26-23.23,16.67-7.55,33.33-8.19,49.92,0,6.83,3.37,13.72,6.3,21.49,6.46,1.03.02,2.64-.41,2.98.91.41,1.56-1.04,2.55-2.23,3.14-2.8,1.42-5.63,2.98-8.63,3.79-3.32.9-5.76,2.67-8.19,4.99-8.32,7.93-18.11,12.66-29.82,12.76v.02ZM408.66,301.36c9.78.03,18.53-3.02,26.39-8.72.89-.65,2.18-1.16,2.1-2.46-.09-1.39-1.53-1.47-2.53-1.9-1.62-.69-3.33-1.19-4.89-1.99-1.96-1.01-3.23-.94-3.96,1.46-.59,1.95-1.81,3.59-3.35,4.95-8.35,7.37-24.04,6.14-27.81-5.98-.51-1.63-1.12-2.48-2.91-1.53-3.46,1.84-6.68,4.03-9.74,6.45-.49.39-1.08.87-.77,1.53.15.32.81.59,1.23.58,4.09-.1,7.46,2.06,11.09,3.41,4.93,1.84,9.74,4.17,15.16,4.19h0Z"/>
        <path class="cls-9" d="M505.05,286.88c-2.84-2.15-3.53-5.27-4.54-8.2-4.35-12.65-8.79-25.27-17.53-35.76-10.04-12.04-22.31-21.42-35.46-29.77-11.87-7.54-25.03-12.4-37.75-18.16-10.49-4.75-20.22-10.8-29.21-17.96-4.75-3.78-8.57-8.62-12.06-13.45-9.58-13.25-17.49-27.4-19.84-44.01-.4-2.84-.22-5.52.52-8.21.43-1.56,1.49-2.29,3.16-1.84,1.44.39,3.12.5,3.02,2.66-.44,8.95,2.76,17.07,6.27,24.96,8.45,18.97,22.14,33.65,39.37,44.79,8.09,5.23,17.09,9.2,26.02,12.93,21.13,8.82,39.9,21.17,55.65,37.67,8.54,8.95,14.81,19.73,18.77,31.62,2.11,6.33,4.31,12.66,4.43,19.45.02.99.23,2.02-.82,3.28Z"/>
        <path class="cls-9" d="M396.06,544.4c.67-13.62-2.2-14.94-2.57-22.46-.73-14.79,1.8-29,8.06-42.55,5.05-10.93,13.19-19.14,22.04-26.95,5.56-4.91,10.61-10.38,16.66-14.76,3.18-2.31,6.49-4.34,10.08-5.92.76-.34,1.72-.97,2.48-.27.95.88-4.8,6.18-7.35,8.18-10.79,8.51-16.48,21.9-22.96,33.73-8.19,14.97-12.14,31.07-16.08,47.32-1.71,7.05-2.92,14.43-3.03,21.61-.17,10.59,1.47,20.95,2.64,31.47.42,3.8-2.39,3.62-4.55,4.1-2.58.58-2.37-7.89-3.63-14.46-.67-3.48-1.9-8.2-1.78-19.04h0ZM399.79,523.73c2.98-11.2,5.16-22.64,8.55-33.8,3.3-10.87,9.28-20.57,13.88-30.88-15.86,18.7-21.66,40.84-22.42,64.69h-.01Z"/>
        <path class="cls-9" d="M339.3,401.96c-.97-3.47.95-4.8,4.85-6.65,6.71-3.18,12.09-1.66,17.75,1.62,1.96,1.14,3.96,2.21,5.88,3.4,3.94,2.45,8.24,3.58,12.83,3.7,2.22.06,3.55.93,3.75,3.28.21,2.43-.56,4.22-3.03,4.96-4.07,1.22-8.29,1.35-12.34.52-7.3-1.49-14.48-.91-21.72.18-6.49.98-7.27.35-7.95-6.12-.14-1.37-.02-2.76-.02-4.9h0Z"/>
        <path class="cls-9" d="M509.02,432.27c-2.84.35-4.85-.37-5.74-3.49-.84-2.94.86-4.4,2.89-5.39,11.98-5.84,21.83-14.84,32.88-22.04.93-.61,1.91-1.69,3.03-1.09,1.63.86,1.26,2.66,1.12,4.1-1.12,11.31-7.06,19.2-17.38,23.74-5.34,2.35-10.99,3.64-16.8,4.16h0Z"/>
        <path class="cls-9" d="M451.22,487.34c.27-3.18,1.24-6.23,2.77-8.95,5.22-9.36,11.58-17.96,18.09-26.45.82-1.07,1.73-2.28,3.45-1.53,1.77.77,1.88,2.17,1.56,3.78-.22,1.11-.18,2.38-.72,3.31-5.02,8.56-7.77,18.34-14.02,26.23-2.17,2.73-4.84,4.8-8.25,5.72-1.68.46-3.11.24-2.88-2.11h0Z"/>
        <path class="cls-9" d="M378.01,275.03c6.82-7.12,21.22-13.24,31.11-13.67,6.01-.26,5.13-.3,10.66.7,10.1,2.45,20.93,7.13,28.6,14.19.53.49,3.13,2.35,6.65,3.67.78.29-9.11-1.41-9.77-1.71-2.27-1.07-4.55-2.16-6.72-3.42-9.2-5.36-19.08-8.23-29.74-8.48-9.01-.22-16.92,3.25-24.68,7.25-1.71.88-3.33,2.17-6.12,1.48h.01Z"/>
        <path class="cls-9" d="M353.76,425.54c3.53,0,7.06-.03,10.58.02,1.21.02,2.82-.39,3.33,1.09.48,1.42-1.03,2.15-1.87,3.01-2.37,2.42-5.35,3.93-8.63,4.36-4.73.62-9.49,1.16-14.3,1.11-3.57-.04-3.74-2.27-3.55-4.85.18-2.44-.28-5.23,3.87-4.82,3.49.35,7.05.07,10.57.07v.02h0Z"/>
        <path class="cls-9" d="M390.35,482.67c-.17,3.69-.95,7.26-2.23,10.7-1.34,3.62-3.65,4.16-6.69,1.72-4.5-3.62-4.63-10.52-.24-14.18.87-.72,1.82-1.37,2.8-1.94,1.57-.91,3.06-2.82,5.06-1.55,1.85,1.18,1.21,3.4,1.31,5.25h-.01Z"/>
        <path class="cls-9" d="M455.75,547.93c4.82-7.51,11.96-12.14,20.1-16.11-2.01,5.48-12.34,13.88-20.1,16.11Z"/>
      </g>
      <g>
        <path class="cls-7" d="M313.45,109.84c.9,0,1.91.5,2.54-.63.17-.3.49-.32.72-.14.73.59,1.48.28,2.25.16.68-.11,1.39-.28,1.93.43.64.84,1.61-.46,1.96.08.5.76.92.96,1.76.78.89-.19,1.94.16,2.56-.87.09-.16.3.04.34.16.33,1.09,1.47,1.23,2.19,1.85.65.56,1.47.87,1.2,2.12-.19.89,1.02,1.12,1.61,1.66-.1.23-.91-.07-.43.59-.01.14-.03.29-.04.43-.02.02-.04.05-.07.07.03.03.06.05.09.08.14.4,1.12.51.42,1.2,0-.18-.09-.32-.26-.24-.09.04-.1.24-.14.37-.11.41-.11.82.03,1.22-.4.4-.08.61.21.83,0,.05.02.09.08.1.04.09.08.18.12.27-.08.47-.78.81-.28,1.4-.02.07-.04.13-.07.2-.05.05-.09.1-.14.16-.04.11-.09.22-.13.33-.44.74-.89,1.5.03,2.2.48.37-.16.81.14,1.16-.2.29-.67.46-.39.95-.71,1.06-.06,2.24-.31,3.34-.02.39-.04.77-.16,1.16-.14.43-.25.95.35,1.21-.42.29-.5.77-.66,1.2.2.56.4,1.11.59,1.67-.69.87-.38,1.47.53,1.9-.02.07-.04.13-.06.2-.13.1-.26.2-.39.29-.37.15-.47.32-.02.51.02.22.03.43.05.65.07.24.13.47.2.71,0,0,0,0,0,0-.05.04-.1.09-.14.13.06.02.11.05.17.07.4.46-.27,1.02.14,1.49.26.5-.68.87-.15,1.4.3.49.14.96-.07,1.42-.48.32-.21.79-.24,1.2-.18.09-.44.32-.3.41.67.47.85.8-.09,1.17-.33.13-.22.39.09.61.46.33.43.36-.04.84-.07.07-.14.24-.1.31.61,1.29-.23,2.72.43,4.03.44.87-.06,1.85.11,2.79.23,1.3.36,2.62.6,3.93.14.78-.61.93-.86,1.43.07,1.16.13,2.31.21,3.47,0,.04.13.07.2.1l.04.03c.03.29.06.59.08.88-.1.49-.07.97.06,1.44.11.63-.57,1.39.31,1.89-.03.3-.06.6-.08.89l-.06.02c-.42.09-.74.44-.45.75,1.33,1.42.78,3.15.71,4.71-.07,1.69.04,3.45-.72,5.1-.22.48.13,1.29.36,1.9.45,1.21.75,2.29-.15,3.54-.31.44-.12,1.5,0,2.21.14.86.09,1.72.22,2.57-.3.52-.98,1.22-.83,1.51.61,1.2.39,2.46.53,3.68.23,1.96.55,3.94.45,5.89-.1,1.8-.47,3.59-.36,5.42-4.92-.56-9.69-.21-14.33,1.78-4,1.71-7.34,4.27-10.12,7.49-3.88,4.5-4.66,10.1-4.95,15.8-.16,3.01.93,5.76,1.62,8.6,1.16,4.81,4.27,8.34,7.75,11.57,1.46,1.36,2.99,2.62,4.98,3.35,4.42,1.6,8.89,2.6,13.61,2.26-.45,2.7-.31,5.38.08,8.08.12.86-.47,1.8-.18,2.81.13.46-.06.99.39,1.41.14.13.2.49.12.67-1.05,2.27-.06,4.6-.26,6.9-.24,2.6-.16,5.22-.4,7.83-.08.91.28,1.85-.4,2.67,1.04,1.91-.04,3.67-.37,5.49-.1.57.42,1.03.27,1.61-.95-1.79-1.8-3.66-2.88-5.37-2.74-4.31-5.69-8.5-8.39-12.84-5.73-9.23-12.2-17.97-18.11-27.09-4.29-6.62-8.94-13.01-12.67-19.98-1.05-1.96-2.3-3.8-3.69-5.54-3.3-4.12-7.08-4.69-11.45-1.69-1.27.87-2.48,1.85-3.77,2.7-1.77,1.16-2.44,1.05-3.66-.68-1.44-2.04-2.79-4.14-4.16-6.23-1.69-2.57-3.61-4.94-6.14-6.73-2.61-1.84-5.46-2.56-8.52-1.2-.91.4-1.45.24-2.01-.51-.62-.83-1.15-1.71-1.61-2.64-1.07-2.17-2.03-4.39-2.92-6.64-1.76-4.46-3.08-9.08-4.98-13.49-1.45-3.38-3.24-6.54-5.89-9.13-4.25-4.16-9.68-4.15-13.97,0-1.61,1.56-2.9,3.36-4.02,5.29-2.62,4.49-5.15,9.02-7.54,13.63-3.11,5.99-6.7,11.68-10.7,17.13-7.1,9.66-14.31,19.21-22.96,27.57-2.32,2.24-2.58,2.22-4.36-.55-2.25-3.51-4.3-7.13-6.27-10.79-1.02-1.88-2.08-3.75-3.42-5.43-3.63-4.53-8.83-5.01-13.22-1.2-1.95,1.7-3.67,3.62-5.27,5.64-4.15,5.26-8.4,10.44-12.91,15.4-7.05,7.75-14.59,15.02-21.84,22.57-2.91,3.03-5.83,6.06-9.03,8.79v-1.21c-1.01.08-.39,1.12-1.01,1.5-.37-1.26.45-2.16.71-3.18.25-.1.74,1.01.78-.14.06-1.66,1.07-3,1.57-4.5.17-.51.22-.81,0-1.23-.34-.65-.23-1.1.59-1.09.76.01.81-.4.75-1-.11-1.15.13-2.26.45-3.37.12-.42.36-.79.67-.93.83-.37,1.49-.65.37-1.48-.08-.06-.08-.39,0-.44.93-.66.68-1.97,1.59-2.71.6-.5.83-1.45,1.21-2.17,1.51-2.85,2.69-5.88,4.05-8.82.44-.95,0-2.17.94-2.94.33.16.59.25.87-.17,1.32-2.02,2.69-4.01,4.04-6.02.05-.06.08-.14.08-.22h0c.4-.19.57-.56.69-.96h0c.19-.1.27-.26.26-.46h0c.34-.13.49-.38.45-.75-.09-.22-.27-.22-.46-.17,0-.1.02-.21.03-.31.06-.06.12-.12.18-.19.99-1.77,1.91-3.59,3.41-5.01.81-.77.96-1.96,1.71-2.79,1.05-1.16.95-2.84,1.89-4.07.86-1.12,1.57-2.35,2.4-3.49.17-.24.36-.81.99-.22.41.39.75-.65.73-.68-.56-.91.38-1.35.7-1.8,1.55-2.17,3.18-4.28,4.91-6.32,1.28-1.51,2.17-3.39,2.98-5.22.39-.87,1.12-1.47,1.45-2.37.19-.51.69-.9.87-1.5.1-.34.34-.77.94-.67.44.07.87-.16,1.03-.64.11-.34.11-.7.65-.64.15.02.46-.27.5-.45.41-1.94,2.13-3.03,3.06-4.67,1.03-1.82,2.03-3.78,3.72-5.19,1.05-.88,2.1-1.76,3.12-2.69.46-.42.79-.94,1.21-1.38,1.85-1.96,4.07-3.54,5.81-5.57.97-1.13,2.05-2.17,2.93-3.38.24-.33.27-.33.77-.02.22.14.26-.03.35-.12,1.14-1.12,1.95-2.53,3.01-3.69,1.24-1.37,2.27-3.06,4.23-3.62.54.56,1.46.12,1.79-.84-.67.12-.95,1.06-1.79.85.37-1.2,1.51-1.65,2.37-2.34,1.03-.82,2.1-1.61,3.28-2.28,1.19-.67,2.23-1.86,3.29-2.88,1.79-1.73,3.96-2.98,5.85-4.57,1.86-1.56,3.66-3.18,5.67-4.55.69-.47,1.29-1.13,2.25-1.03.09,0,.25-.06.29-.14.82-1.61,2.54-1.92,3.9-2.75,1.01-.62,1.99-1.31,2.98-1.95,1.39-.89,2.69-1.88,4.36-2.45,1.47-.51,2.96-1.38,4.34-2.33,2.59-1.79,5.42-3.21,8.26-4.58,1.77-.85,3.35-2.14,5.45-2.36.44-.05,1.24-.51,1.7-.98,1.44-1.47,3.63-.8,5.16-1.89,1.1-.79,2.1-1.74,3.42-2.16,2.87-.9,5.21-3.05,8.32-3.44,1.09-.14,2.47-.56,3.14-1.13,1.42-1.21,3.04-1.27,4.6-1.68.98-.26,1.28-1.31,2.29-1.57,1.56-.41,2.98-1.4,4.72-1.1.07,0,.16-.02.22-.06,2.64-1.93,5.98-1.47,8.87-2.66,4.88-2.03,10.18-2.5,15.3-3.61,1-.22,2-.43,2.96-.76,1.34-.46,2.69.07,4.07-.22,2.95-.61,5.97-.78,8.97-1.08,1.86-.19,3.88.09,5.67-.93.33-.19.92.16,1.36.08,2.31-.45,4.58.26,6.85.18.96-.03,2.03-.32,3.02-.6.54-.15,1.08-.14,1.6-.27.45,1.09,1.58,1.31,2.65,2.14-.47-1.22-.4-1.83.81-1.17l-.04-.03Z"/>
        <path class="cls-7" d="M321.7,110.46c.31.18.59.23.81-.1.03-.04-.01-.18-.06-.2-.36-.19-.57,0-.75.3Z"/>
        <path class="cls-7" d="M168.21,165.77c-.1-.05-.18-.11-.22-.09-.09.05-.16.13-.24.21.07.02.14.08.19.06.09-.03.16-.1.26-.17h0Z"/>
        <path class="cls-5" d="M165.72,531.34c-1.63-1.45-3.26-2.9-4.9-4.34v-.06h-.06c-.06-.06-.12-.12-.19-.18v-.05h-.05c-.07-.06-.13-.12-.19-.18v-.05h-.05c-.02-.08-.07-.13-.15-.15v-.06h-.07c-.5-.45-1-.9-1.5-1.35-.07-.07-.14-.13-.21-.2l-.04-.04c-.07-.06-.13-.12-.2-.18,0,0-.06-.06-.06-.05-.06-.06-.12-.12-.18-.17l-.07-.07c-.06-.06-.11-.11-.17-.17l-.02-.06h-.06c-.05-.06-.1-.11-.15-.16,0-.07-.04-.1-.1-.11,0-.08-.03-.11-.11-.11-.02-.08-.06-.13-.14-.15v-.07h-.08c-.02-.1-.07-.15-.15-.18v-.07h-.06c-.94-.93-1.4-2.19-2.25-3.17.63-.28,1.53-.32,1.23-1.41.88-.53,1.98-.43,2.84-1.09,1.12-.87,2.31-1.67,3.55-2.38,9.72-5.56,20.01-9.93,30.24-14.42,7.01-3.08,14.36-5.18,21.77-7.12,9.8-2.57,19.51-5.5,29.22-8.4,8.57-2.56,17.07-5.3,25.25-8.95,3.07-1.37,6.08-2.85,9.09-4.35,8.48-4.23,16.99-8.38,25.48-12.57,6.48-3.2,12.81-6.73,19.5-9.5,1.41-.58,2.75-1.41,3.5-2.87.29,1.06.45,2.14.44,3.23-.01,2.79.21,5.57.08,8.37-.25,5.78-.22,11.58-.02,17.36.12,3.41-.04,6.82.21,10.21.57,7.65-.16,15.28-.17,22.92,0,4.64-.2,9.27-.3,13.91-.23,10.9-.93,21.78-1.35,32.68-.25,6.58-.39,13.16-.55,19.73-.08,3.29-.32,6.57-.95,9.8-.3,1.51-1.85,3.11-3.4,3.36-1.17.19-2.36.3-3.55.35-4.63.19-9.25.5-13.89.36-.81-.02-1.47-.61-2.29-.48-.31-.16-.63-.18-.95-.07-1.18-.21-2.38-.19-3.57-.16-.39-.18-.78-.18-1.19-.08-.78-.19-1.58-.17-2.38-.16-.22-.15-.46-.18-.72-.1-.48-.04-.95-.09-1.43-.13-.14-.12-.3-.15-.48-.07-.46-.2-.94-.18-1.43-.17-.14-.12-.3-.16-.48-.08-.46-.19-.94-.19-1.42-.17-.14-.13-.3-.16-.48-.1-.95-.13-1.9-.25-2.85-.38-.14-.13-.3-.16-.48-.1-.79-.12-1.58-.25-2.38-.37-.14-.13-.3-.17-.48-.12-6.26-1.12-12.42-2.65-18.52-4.41-.07-.01-.14-.03-.21-.04-2.28-.89-4.61-1.66-6.96-2.33-.06-.02-.13-.05-.19-.07-.49-.24-.98-.51-1.56-.44-.13-.07-.26-.13-.4-.2-.2-.2-.45-.24-.71-.25-.2-.21-.46-.23-.72-.23l-.04-.05-.06.03c-.12-.05-.24-.1-.35-.14-1.33-.57-2.68-1.08-4.07-1.46-.19-.22-.44-.25-.7-.26-4.01-1.7-8.19-2.97-12.28-4.46-8.28-3.01-16.39-6.39-24.21-10.44-.24-.13-.51-.22-.76-.33v-.05s-.01.04-.01.04c-.14-.07-.29-.15-.43-.22l-.02-.07-.06.03c-1.74-1.01-3.49-2.02-5.23-3.04-6.37-3.74-12.12-8.36-18.08-12.69-5.99-4.35-11.95-8.74-17.66-13.47-.15-.12-.33-.2-.5-.3-.08-.07-.16-.14-.24-.2l-.03-.05Z"/>
        <path class="cls-8" d="M330.12,299.91c.33.75.37,1.49-.02,2.23-.62.41-1.25.68-2,.33-.49-.23-.98-.05-1.36.18-1.55.95-3.31,1.28-5.01,1.8-6.66,2.01-13.27,4.2-19.98,5.99-14.76,3.94-29.51,7.83-43.52,14.09-6.35,2.84-13.07,4.71-19.54,7.22-7.63,2.97-15.02,6.44-22.01,10.74-.23.14-.47.16-.67.04-2.16-1.26-4.66-1.76-6.81-3.05-4.93-2.97-9.74-6.13-14.17-9.8-8.25-6.81-16.46-13.67-24.55-20.67-2.77-2.4-5.83-4.49-9.62-5.13-2-.34-4-.57-6.01-.67-3.72-.19-7.46-.26-11.15.31-5.93.92-11.83,1.79-17.89,1.3-5.87-.48-11.15-2.58-16.19-5.37-3.77-2.09-7.2-4.69-10.48-7.53-2.98-2.58-6.19-4.91-8.88-7.82-.08-.1-.17-.2-.25-.3l.02.02c-.14-1.64.12-3.16,1.09-4.54.31-.44.5-.98.66-1.5.14-.46.35-.74.85-.76.13-.1.3-.16.26-.37h-.02c1.55-.06,2.59-1.17,3.74-1.95,1.92-1.3,3.68-2.82,5.56-4.19,1.97-1.45,4.04-2.77,5.99-4.25,5.23-3.98,9.99-8.5,14.74-13.04.28-.27.48-.84,1.18-.55-.86,1.12-1.72,2.14-2.47,3.24-.74,1.06-.23,2.16,1.04,2.44l-.02-.02c.44.62.98.84,1.76.58,1.34-.46,2.45-1.22,3.53-2.12,1.87-1.57,3.71-3.21,5.88-4.39,2.42-1.32,4.27-.92,5.91,1.3.96,1.3,1.79,2.71,2.68,4.07,1.04,1.59,1.94,3.29,3.4,4.56,1.68,1.45,3.54,2.34,5.77,1.38,2.48-1.06,4.37-2.88,5.75-5.15,1.97-3.24,4.26-6.2,6.96-8.85.33-.33.66-.48,1.15-.43,3.75.37,6.76-1.03,9.36-3.69,6.65-6.77,12.98-13.8,18.42-21.59.11-.16.16-.5.58-.24-.25.64-.47,1.29-.75,1.93-.27.63-.24,1.22.03,1.83.08.19.23.47.37.37.64-.43,1.43-.01,1.83.1,2.04.61,3.39-.51,4.51-1.69,3.75-3.95,8.02-7.33,11.9-11.13,1.1-1.08,2.27-2.1,3.66-2.83,1.39-.73,1.98-.55,2.64.85.18.39.3.82.37,1.25.27,1.68.44,3.38.78,5.04.37,1.87.91,3.7,2.1,5.25.93,1.22,2.11,1.7,3.65,1.27,2.49-.7,4.46-2.28,6.27-3.97,2.48-2.3,5.32-3.15,8.6-2.88,3.55.29,7.04.02,10.37-1.36.62-.26,1.06-.22,1.6.24,2.11,1.81,3.44,4.21,4.96,6.47.82,1.23.34,2.52-.2,3.74-.34.76-.74,1.49-1.07,2.26-2.88,6.73-5.66,13.51-9.64,19.7-1.37,2.13-2.56,4.4-3,6.94-.19,1.08-.07,2.17.85,2.93.92.76,1.96.55,2.92.12.94-.42,1.83-.95,2.72-1.47,2.01-1.19,4.04-2.35,6.27-3.1,2-.68,2.48-.36,2.8,1.72.01.08.01.16.02.24.29,2.27.45,4.57,1.36,6.72,1.09,2.57,2.51,3.63,5.27,3.54,3.12-.1,6.23-.56,9.37-.27,2.01.19,3.13.88,3.24,2.89.17,3.47,1.14,6.87.53,10.43-.57,3.31,1.14,5.97,3.4,8.25.43.44,1.07.64,1.74.65,2.38.02,4.73-.2,7.08-.65,3.35-.64,6.28-2.71,9.84-2.66,1.73.02,3.5-.23,5.21.05,3.8.63,7.43,1.88,10.93,3.47,5.26,2.39,10.34,5.05,13.84,9.91h-.03Z"/>
        <path class="cls-11" d="M155.71,518.52c.3,1.09-.6,1.13-1.23,1.41-2.57-1.28-4.44-3.4-6.38-5.42-4.69-4.89-8.78-10.29-12.95-15.62-.31-.4-.67-.77-1.01-1.16v-.09l-.09-.03c-2.36-3.03-4.71-6.07-7.08-9.09-3.07-3.9-5.68-8.11-8.47-12.2-.05-.07-.1-.14-.14-.21-.06-.1-.12-.19-.17-.29v-.09l-.09-.03c-.09-.32-.24-.6-.51-.8-.05-.07-.1-.14-.16-.21-.06-.11-.13-.22-.19-.32l.02-.08-.08-.02c-.07-.43-.32-.76-.61-1.05-.04-.06-.08-.12-.12-.18-.24-.55-.5-1.08-.91-1.52l.02-.06-.07-.02.02-.06-.06-.02c-.06-.09-.12-.18-.17-.27-1.72-3.02-3.44-6.04-5.15-9.05v-.11l-.1-.05c-.06-.12-.13-.23-.19-.35l.03-.06-.07-.02c-2.17-4.29-4.35-8.58-6.52-12.87-.85-1.69-1.68-3.38-2.52-5.07-.05-.1-.11-.21-.16-.31h.03c.03-.09,0-.14-.09-.16,0-.22-.05-.42-.23-.56l.04-.03-.07-.02c-.05-.13-.1-.25-.16-.38v-.1s-.08-.06-.08-.06c-.3-.96-.63-1.91-1.24-2.74.02-.17.08-.36-.18-.41-.16-.87-.54-1.63-1-2.37,0-.18-.02-.34-.2-.43-.03-.1-.07-.2-.1-.3.04-.12.01-.2-.12-.22h0c-.02-.07-.04-.14-.06-.22-.82-2.14-1.63-4.29-2.45-6.43-.04-.08-.09-.16-.13-.24-.05-.17-.09-.34-.14-.5-.04-.07-.07-.14-.11-.2-.18-.44-.35-.87-.53-1.31.05-.13.04-.23-.11-.28-.05-.14-.11-.28-.16-.41.07-.15.04-.26-.12-.34l-.03-.07c.04-.08.03-.15-.05-.2.06-.31-.11-.53-.27-.76-.03-.07-.07-.14-.1-.2-.01-.27-.05-.53-.28-.71,0-.24,0-.47-.2-.64-.53-2.06-1.25-4.05-2-6.03-.05-.13-.1-.26-.14-.39,0-.55-.2-1.04-.43-1.53-.03-.08-.06-.15-.09-.23-.14-.9-.38-1.78-.76-2.61.03-.26,0-.5-.2-.7-.04-.17-.08-.35-.12-.52-.04-.13-.09-.26-.13-.39-.03-.18-.07-.36-.1-.55-.04-.09-.07-.18-.11-.27-.36-1.49-.72-2.97-1.08-4.46-.05-.16-.09-.32-.14-.47-.32-2.41-1.01-4.82-.47-7.25.25-1.11-.23-2.17.08-3.23.84-.36,1.69-.63,2.62-.4.61.15,1.22.28,1.83.41.76.32,1.52.63,2.28.96,7.3,3.1,14.42,6.53,21.16,10.76,9.06,5.68,18.2,11.21,27.44,16.6,5.71,3.33,11.3,6.86,17.14,9.98,7.41,3.96,15.18,6.94,23.37,8.83,1.4.17,7.53.55,8.76,1,5.38.13,10.73-.75,16.11-.52.39.02.78-.07,1.17-.15,3.82-.81,7.68-1.38,11.57-1.78,2.15-.22,4.28-.6,6.41-.91,5.82-1.63,5.38-1.19,8.61-1.19.36,0,.72.04,1.07-.03,3.8-.74,7.66-.91,11.51-1.12,5.53-.3,41.01.62,43.7.51,6.43-.27,12.86-.53,19.28-1,3.42-.25,6.85-.39,10.24-.95,2.63-.43,4.05.25,5.1,2.35.05,1.2.18,2.4-.2,3.57-.03.48-.22.91-.44,1.34-1.34,2.63-3.6,4.13-6.27,5.11-5.45,2.01-25.42,11.69-26.4,12-2.95.92-5.33,2.36-8.44,3.71-6.39,3.68-12.99,6.94-19.81,9.74-4.91,2.01-9.9,3.8-14.94,5.45-.31-.02-.63-.1-.84.24h0c-.27-.03-.56-.09-.72.24h0c-2.89.65-29.06,9.46-37.13,11.71-3.56.99-6.93,2.52-10.36,3.84-2.1.81-4.21,1.62-6.34,2.36-2.02.69-4.07,1.31-6.02,2.18-5.21,2.33-10.34,4.82-15.4,7.46-2.24,1.17-4.53,2.28-6.55,3.84-1.09.84-1.97,2.03-3.27,2.53-2.74,1.07-4.48,3.49-6.92,4.94-.26.16-.38.39-.36.7l-.02-.07Z"/>
        <path class="cls-16" d="M91.21,394.24c-.61-.14-1.22-.27-1.83-.41-.93-.22-1.78.04-2.62.4-1.05-.64-.99-1.82-1.18-2.78-.85-4.33-1.81-8.67-1.97-13.09-.12-3.33-.77-6.59-1.09-9.89-.42-4.33-.38-9.54.88-13.74,2.24-.74,2.1-.61,3.06-.95h-.03c.14-.06.29-.12.43-.19,2-1.04,4.01-2.09,6.12-2.89,7.74-2.92,15.63-5.37,23.66-7.34,3.53-.86,7.12-1.42,10.74-1.68,3.74-.27,7.31.53,10.74,2.01.24.1.62.42.74.2.55-1.01.81-.13,1.15.14.59.46,1.17.94,1.75,1.42.44.36.85.57.97-.34.45.61.4,1.34.99,1.73,1.49.98,2.87,2.09,4.21,3.27,3.09,2.7,6.24,5.34,9.36,8.01,2.22,1.9,4.31,3.98,6.66,5.71,3.56,2.63,7.12,5.26,10.62,7.96,6.38,4.93,12.83,9.79,19.81,13.86,1.53.89,2.98,2.16,4.77,2.32,1.85.16,3.68.39,5.53.57s3.68.46,5.44,1.06c1.32.45,2.6.97,4,.35,1.37-.61,2.8.25,4.19-.21,1.6-.52,3.39,0,4.94-.83,1.68-.9,3.51-1.08,5.37-1.3,1.01-.12,2.07-.08,3.07-.47,3.28-1.29,6.66-2.28,10.04-3.27,4.56-1.34,9.17-2.5,13.96-2.71,3.44-.16,6.42,1.08,9.22,2.93,3.56,2.34,6.5,5.4,9.62,8.26,2.01,1.85,3.78,3.95,5.73,5.86,4.1,4.01,8.4,7.8,12.93,11.31,2.39,1.86,4.8,3.7,7.31,5.39,2.21,1.49,4.58,2.73,6.85,4.13,1.89,1.17,3.64,2.52,5.66,3.53,3.57,1.8,6.79,4.19,9.69,6.97,1.13,1.09,2.24,2.19,3.36,3.28v1.18c-3.86-1.56-7.81-2.78-12.03-2.6-1.77.07-3.53.4-5.3.43-4.55.07-9.09.12-13.63.46-3.82.29-7.67.22-11.51.29-5.35.09-10.7.08-16.04.29-1.93.08-3.87.11-5.81.22-4,.22-8,.5-11.98.9-2.76.28-5.5-.32-8.25-.33-.3,0-.84-.11-.87-.26-.2-.93-.93-.61-1.4-.56-1.44.16-2.87.61-4.31.64-3.26.08-6.41.86-9.6,1.35-6.58,1-13.09,2.44-19.71,3.26-5.08.63-10.14.84-15.25.48-5.28-.37-10.39-1.45-15.35-3.19-5.57-1.96-10.92-4.44-16.12-7.24-2.19-1.18-4.33-2.48-6.66-3.41-1.3-.52-2.85-.63-3.65-2.1-.15-.27-.76-.51-1.04-.42-.7.23-1-.21-1.44-.54-2.19-1.61-4.27-3.36-6.64-4.72-5.83-3.36-11.65-6.73-17.46-10.11-5.21-3.02-10.54-5.78-16.09-8.15-4.5-1.92-9.31-2.81-13.84-4.58-.31-.12-.62-.15-.87.15v-.02Z"/>
        <path class="cls-17" d="M326.73,403.04c-.14,1.27-.19,2.54-.13,3.81-.22,1.09-.22,2.19-.09,3.29-.25,2.38-.13,4.77-.16,7.15-.05.09-.1.17-.16.26,0,.24-.02.48-.03.73-.08,2.54-.16,5.07-.24,7.61-.19,1.51-.14,3.05-.56,4.53-.31-.17-.55-.41-.81-.67-2.01-2.08-2.96-5-5.44-6.73-1.32-.92-2.38-2.21-3.7-3.12-1.91-1.32-3.78-2.69-5.84-3.81-4.66-2.53-8.87-5.77-13.12-8.93-3.9-2.9-7.69-5.93-11.15-9.35-3.13-3.09-6.15-6.27-9.09-9.54-1.24-1.38-2.43-2.85-3.85-4.03-2.38-1.97-5.03-3.57-7.95-4.66-3.06-1.14-6.27-1.78-9.5-1.69-3.65.1-7.31.5-10.92,1.13-3.02.52-6.12.81-8.95,2.11-6.42,2.95-13.22,4.47-20.19,5.22-6.9.74-13.36-.96-19.39-4.27-4.43-2.44-8.72-5.1-12.93-7.92-7.07-4.75-13.66-10.08-19.84-15.92-3.59-3.39-7.19-6.78-10.96-9.97-3.41-2.89-7.17-5.18-11.42-6.63-5.75-1.97-11.67-2.25-17.66-1.66-4.7.46-9.24,1.7-13.69,3.2-7.03,2.36-13.69,5.59-20.3,8.92-1.53.77-3.11,1.37-4.82,1.58-1.08-.04-1.5-.64-1.5-1.69-.01-7.3.5-14.57,1.04-21.83.66-8.97,1.64-17.9,3.19-26.77.69-3.94.88-7.95,1.75-11.86.28-1.23.97-2.32,1.06-3.62.02-.38.44-.63.83-.78,1.26-.13,1.86.87,2.44,1.64,2.63,3.47,5.96,6.21,9.34,8.87,3.9,3.07,8.23,5.45,12.76,7.46,5.03,2.23,10.26,3.59,15.81,3.21,3.06-.21,6.11-.6,9.16-.99.8-.1,1.65-.19,2.31-.81.26-.24.62-.34.99-.14.97.52,1.96.15,2.88-.08,2.22-.55,4.44-.98,6.74-1.09,1.6-.07,3.06.54,4.65.58,2.04.05,4.02.67,5.89,1.62,4.32,2.18,7.86,5.44,11.52,8.48,4.95,4.11,9.57,8.61,14.42,12.85,1.75,1.53,3.32,3.26,5.21,4.66,3.39,2.52,6.88,4.9,10.31,7.36,6.37,4.57,13.3,7.56,21.2,8.04,4.25.26,8.49.47,12.71,1.16,3.73.6,7.3,1.59,10.69,3.25,2.57,1.26,4.67,3.24,7.11,4.68,2.35,1.39,4.6,2.93,6.82,4.52,4.57,3.26,9.47,5.85,14.72,7.82s10.79,2.65,16.23,3.79c2.42.51,4.94.58,7.33,1.17,4.35,1.08,8.26,3.18,11.79,5.9,3.84,2.95,7.77,5.81,10.76,9.72.54.71,1.12,1.56,2.13,1.78h-.01v.51c.11,1.1.22,2.2.33,3.31-.06.26-.02.5.14.71.03.4.07.79.1,1.19,0,1.59.02,3.18.02,4.76l.02-.02Z"/>
        <path class="cls-3" d="M326.14,392.56c-1.02-.22-1.59-1.07-2.13-1.78-2.99-3.91-6.92-6.77-10.76-9.72-3.53-2.71-7.45-4.82-11.79-5.9-2.39-.59-4.91-.67-7.33-1.17-5.44-1.14-10.98-1.82-16.23-3.79s-10.16-4.56-14.72-7.82c-2.22-1.58-4.47-3.12-6.82-4.52-2.44-1.45-4.53-3.43-7.11-4.68-3.39-1.66-6.96-2.65-10.69-3.25-4.22-.68-8.46-.9-12.71-1.16-7.9-.48-14.83-3.47-21.2-8.04-3.43-2.46-6.92-4.84-10.31-7.36-1.89-1.4-3.45-3.13-5.21-4.66-4.85-4.24-9.47-8.74-14.42-12.85-3.66-3.04-7.2-6.29-11.52-8.48-1.87-.94-3.85-1.57-5.89-1.62-1.59-.04-3.05-.65-4.65-.58-2.3.11-4.52.54-6.74,1.09-.92.23-1.91.6-2.88.08-.37-.2-.73-.1-.99.14-.66.62-1.52.71-2.31.81-3.04.39-6.09.78-9.16.99-5.55.38-10.78-.99-15.81-3.21-4.53-2.01-8.85-4.39-12.76-7.46-3.38-2.66-6.71-5.39-9.34-8.87-.58-.77-1.18-1.77-2.44-1.64-.02-.67-.48-1.21-.58-1.85-.08-.5-.51-1.18.39-1.45l-.02-.02c.08.1.17.2.25.3,2.69,2.91,5.9,5.24,8.88,7.82,3.28,2.84,6.71,5.44,10.48,7.53,5.04,2.79,10.32,4.89,16.19,5.37,6.05.49,11.95-.38,17.89-1.3,3.69-.57,7.43-.5,11.15-.31,2.01.1,4.02.33,6.01.67,3.79.64,6.85,2.74,9.62,5.13,8.09,7.01,16.3,13.86,24.55,20.67,4.44,3.67,9.25,6.82,14.17,9.8,2.15,1.3,4.65,1.79,6.81,3.05.2.12.44.1.67-.04,6.99-4.29,14.38-7.77,22.01-10.74,6.47-2.52,13.19-4.39,19.54-7.22,14.01-6.26,28.76-10.15,43.52-14.09,6.72-1.79,13.33-3.98,19.98-5.99,1.7-.51,3.46-.85,5.01-1.8.39-.24.88-.41,1.36-.18.75.35,1.38.08,2-.33-.11,1.12.57,2.37-.52,3.34-.04.03-.07.13-.05.16,1.23,2.37-.12,4.77.01,7.16.04.78-.1,1.64-.11,2.46-.06,3.55.04,7.08-.32,10.64-.19,1.83-.05,3.75-.09,5.64-.11,5.38-.53,10.73-1.16,16.08-.02.23-.04.46-.06.69-.02.24-.04.47-.06.71-.28,1.42-.45,2.85-.44,4.29-.12.33-.22.65-.1,1-.02.14-.05.28-.07.42-.03.78-.06,1.55-.09,2.33-.2.48-.09.98-.09,1.47-.32,3.65-.26,7.31-.12,10.97,0,.55.01,1.11.02,1.66-.04.97-.06,1.95.15,2.91-.02.03-.06.07-.06.1.02.07.05.14.08.21.08,1.33-.21,2.66,0,3.99-.02.02-.05.05-.04.06.02.05.06.08.08.13-.17,2.35-.29,4.69-.27,7.05-.04.1-.08.21-.13.31-.03,1.44-.05,2.87-.08,4.31-.21.19-.28.42-.2.69.06.57-.65,1.03-.25,1.66h0Z"/>
        <path class="cls-3" d="M330.12,299.91c-3.5-4.86-8.58-7.52-13.84-9.91-3.5-1.59-7.13-2.84-10.93-3.47-1.71-.28-3.48-.03-5.21-.05-3.56-.05-6.49,2.02-9.84,2.66-2.35.45-4.7.67-7.08.65-.67,0-1.31-.21-1.74-.65-2.25-2.28-3.96-4.94-3.4-8.25.61-3.56-.36-6.96-.53-10.43-.1-2.01-1.22-2.7-3.24-2.89-3.14-.3-6.25.16-9.37.27-2.76.09-4.18-.96-5.27-3.54-.91-2.15-1.07-4.45-1.36-6.72,0-.08-.01-.16-.02-.24-.32-2.09-.8-2.4-2.8-1.72-2.23.75-4.25,1.91-6.27,3.1-.89.52-1.78,1.05-2.72,1.47-.96.43-2,.65-2.92-.12s-1.04-1.85-.85-2.93c.45-2.54,1.64-4.82,3-6.94,3.99-6.2,6.76-12.97,9.64-19.7.33-.76.73-1.49,1.07-2.26.54-1.22,1.02-2.52.2-3.74-1.51-2.26-2.84-4.66-4.96-6.47-.54-.46-.99-.5-1.6-.24-3.33,1.39-6.82,1.66-10.37,1.36-3.28-.27-6.13.57-8.6,2.88-1.82,1.69-3.78,3.26-6.27,3.97-1.55.44-2.72-.04-3.65-1.27-1.18-1.55-1.72-3.38-2.1-5.25-.33-1.67-.51-3.36-.78-5.04-.07-.43-.19-.86-.37-1.25-.66-1.39-1.25-1.58-2.64-.85-1.38.73-2.56,1.75-3.66,2.83-3.87,3.81-8.15,7.18-11.9,11.13-1.12,1.18-2.48,2.3-4.51,1.69-.4-.12-1.19-.53-1.83-.1-.14.09-.29-.18-.37-.37-.27-.61-.3-1.21-.03-1.83.28-.63.5-1.29.75-1.93-.41-.25-.46.08-.58.24-5.45,7.79-11.77,14.82-18.42,21.59-2.61,2.65-5.62,4.06-9.36,3.69-.49-.05-.82.11-1.15.43-2.7,2.65-4.99,5.61-6.96,8.85-1.38,2.27-3.27,4.09-5.75,5.15-2.23.96-4.09.07-5.77-1.38-1.46-1.27-2.36-2.97-3.4-4.56-.89-1.36-1.72-2.76-2.68-4.07-1.64-2.22-3.48-2.62-5.91-1.3-2.17,1.18-4.01,2.82-5.88,4.39-1.08.9-2.19,1.67-3.53,2.12-.78.27-1.31.05-1.76-.58.17.01.21-.11.24-.24.14-.03.2-.11.15-.25,0-.02-.07-.03-.1-.05-.01.11-.02.21-.04.32-.17-.02-.22.1-.24.24-1.27-.28-1.77-1.38-1.04-2.44.76-1.09,1.61-2.12,2.47-3.24-.7-.29-.9.28-1.18.55-4.75,4.54-9.51,9.05-14.74,13.04-1.95,1.48-4.01,2.8-5.99,4.25-1.87,1.37-3.64,2.9-5.56,4.19-1.16.78-2.19,1.9-3.74,1.96l.48-.57c3.2-2.73,6.12-5.75,9.03-8.79,7.25-7.55,14.8-14.82,21.84-22.57,4.51-4.96,8.76-10.14,12.91-15.4,1.6-2.03,3.32-3.95,5.27-5.64,4.38-3.8,9.58-3.33,13.22,1.2,1.34,1.68,2.4,3.54,3.42,5.43,1.98,3.66,4.03,7.28,6.27,10.79,1.77,2.77,2.04,2.78,4.36.55,8.66-8.36,15.87-17.91,22.96-27.57,4-5.44,7.59-11.13,10.7-17.13,2.39-4.61,4.92-9.14,7.54-13.63,1.12-1.92,2.41-3.73,4.02-5.29,4.29-4.15,9.72-4.16,13.97,0,2.65,2.6,4.44,5.76,5.89,9.13,1.9,4.41,3.21,9.03,4.98,13.49.89,2.25,1.84,4.47,2.92,6.64.46.92.99,1.8,1.61,2.64.56.75,1.1.91,2.01.51,3.06-1.36,5.91-.64,8.52,1.2,2.53,1.79,4.45,4.16,6.14,6.73,1.37,2.09,2.73,4.19,4.16,6.23,1.22,1.73,1.89,1.84,3.66.68,1.29-.85,2.49-1.83,3.77-2.7,4.37-3,8.15-2.43,11.45,1.69,1.39,1.74,2.64,3.58,3.69,5.54,3.74,6.97,8.39,13.36,12.67,19.98,5.9,9.12,12.37,17.86,18.11,27.09,2.7,4.34,5.64,8.53,8.39,12.84,1.09,1.71,1.93,3.57,2.88,5.37h0c-.02.26-.08.53.22.68.38,1.36.24,2.75.2,4.13h.03ZM316.34,286.75c.07-.59-.35-.94-.63-1.34-4.18-5.71-7.92-11.72-12.08-17.43-2.73-3.74-5.15-7.69-7.98-11.36-4.83-6.27-8.86-13.06-12.86-19.87-1.5-2.54-2.85-5.17-4.57-7.57-.4-.56-.76-1-1.69-.3-2,1.52-4.11,2.92-6.5,3.82-2.17.82-4.3.96-6.4-.13-1.94-1.01-3.28-2.68-4.63-4.34-.37-.46-.58-1.44-1.14-1.26-.67.22-.66,1.2-.76,1.9-.39,2.85-.98,5.66-1.85,8.41-1.85,5.84-4.95,11.09-7.75,16.48-.6,1.15-1.18,2.31-1.81,3.55.57,0,.68-.33.88-.55.23-.26.38-.63.66-.82,2.95-1.98,6.03-3.72,9.62-4.22,2.44-.34,3.7.49,4.48,2.84.12.37.19.76.3,1.14.55,2.05.6,4.22,1.37,6.22.65,1.68,1.06,1.97,2.82,1.92.87-.02,1.74-.09,2.6-.21,2.01-.3,4.02-.36,6.05-.28,3.2.14,5.34,1.7,6.36,4.76.55,1.66.88,3.36.97,5.1.14,2.69-.14,5.4.3,8.07.78,4.73,1.56,5.06,5.68,4.31.19-.04.38-.11.57-.16,3.54-.98,7.03-2.2,10.68-2.73,6.25-.9,12.15-.22,17.31,4.01v.04ZM196.04,225.44c.52.23.72-.2,1-.44,3.91-3.36,7.58-6.98,11.3-10.55,1.65-1.59,3.29-3.23,5.21-4.49,3.18-2.09,5.86-1.15,7.11,2.47.5,1.45.73,2.98.99,4.49.3,1.75.5,3.53,1.2,5.18.55,1.3,1.3,1.5,2.53.86,1.2-.63,2.16-1.53,3.12-2.46,1.85-1.79,3.73-3.52,6.43-4,1.75-.31,3.48-.43,5.24-.23.24.03.59.2.71-.16.11-.33-.21-.48-.42-.63-1.18-.87-1.92-2.08-2.6-3.33-2.77-5.1-5.02-10.42-6.94-15.89-1.51-4.29-3.18-8.5-5.68-12.34-1.84-2.82-4.1-3.06-6.34-.53-1.24,1.4-2.21,3-3.11,4.63-6.31,11.43-12.8,22.76-18.59,34.46-.47.96-1.06,1.89-1.16,3v-.04ZM163.87,248.65c-.3-.53-.82-.16-1.16-.59-1.98-2.47-3.8-5.03-5.38-7.79-1.88-3.3-3.4-6.81-5.6-9.93-.55-.78-1.08-1.56-1.81-2.18-.96-.81-1.98-.93-3.06-.22-.93.62-1.76,1.35-2.56,2.13-2.64,2.58-5.06,5.36-7.42,8.19-3.11,3.74-6.49,7.27-8.92,11.54-.54.95-1.12,1.89-1.69,2.83-.21.35-.86.71-.47,1.06.48.43.76-.33,1.07-.59,2.01-1.72,4.18-3.22,6.59-4.32,3.35-1.53,6.33-.82,8.69,1.97.82.97,1.55,2,2.26,3.06,1.16,1.75,2.32,3.5,3.59,5.18.99,1.31,2.16,1.41,3.49.44.47-.35.87-.8,1.27-1.24,1.5-1.7,2.49-3.74,3.85-5.54,1.47-1.94,3.05-3.61,5.71-3.76.48-.03,1.02.1,1.56-.23h0Z"/>
        <path class="cls-4" d="M330.45,257.65c-4.72.33-9.19-.66-13.61-2.26-2-.72-3.52-1.99-4.98-3.35-3.48-3.23-6.59-6.76-7.75-11.57-.69-2.84-1.78-5.6-1.62-8.6.3-5.7,1.07-11.3,4.95-15.8,2.77-3.21,6.12-5.78,10.12-7.49,4.64-1.99,9.41-2.33,14.32-1.78.35.2.74.22,1.13.18,1.03.29,2.06.55,3.08.88,4.86,1.59,8.72,4.53,11.84,8.57,2.19,2.84,3.23,6.06,4.28,9.42,1.8,5.78.89,11.41-1.08,16.65-3.06,8.15-9.47,12.87-18,14.65-.89.19-1.79.33-2.68.49h0Z"/>
        <path class="cls-3" d="M91.21,394.24c.25-.3.56-.27.87-.15,4.53,1.77,9.34,2.66,13.84,4.58,5.55,2.37,10.88,5.13,16.09,8.15,5.82,3.38,11.64,6.75,17.46,10.11,2.36,1.36,4.45,3.11,6.64,4.72.44.33.74.77,1.44.54.29-.09.9.15,1.04.42.8,1.47,2.35,1.58,3.65,2.1,2.33.92,4.47,2.22,6.66,3.41,5.2,2.81,10.55,5.29,16.12,7.24,4.96,1.74,10.07,2.82,15.35,3.19,5.11.36,10.17.15,15.25-.48,6.62-.82,13.13-2.27,19.71-3.26,3.19-.48,6.34-1.27,9.6-1.35,1.44-.03,2.86-.48,4.31-.64.47-.05,1.2-.38,1.4.56.03.15.57.26.87.26,2.76,0,5.5.61,8.25.33,3.99-.4,7.98-.68,11.98-.9,1.93-.11,3.87-.14,5.81-.22,5.34-.21,10.69-.2,16.04-.29,3.84-.07,7.69,0,11.51-.29,4.54-.34,9.09-.39,13.63-.46,1.77-.03,3.53-.36,5.3-.43,4.23-.17,8.17,1.04,12.03,2.6.04.4.08.8.13,1.2.05.09.09.18.14.27-.13.7.33,1.46-.23,2.11-1.04-2.1-2.47-2.78-5.1-2.35-3.39.55-6.82.7-10.24.95-6.42.47-12.85.72-19.28,1-2.69.11-38.17-.81-43.7-.51-3.85.21-7.71.37-11.51,1.12-.34.07-.71.02-1.07.03-2.92.04-5.78.5-8.61,1.19-2.14.31-4.27.69-6.41.91-3.89.4-7.74.98-11.57,1.78-.38.08-.78.16-1.17.15-5.38-.22-10.73.65-16.11.52-.66-.06-1.33-.11-1.99-.19-2.26-.26-4.51-.54-6.77-.81-8.19-1.89-15.96-4.87-23.37-8.83-5.83-3.12-11.43-6.65-17.14-9.98-9.23-5.39-18.38-10.92-27.44-16.6-6.73-4.22-13.86-7.66-21.16-10.76-.76-.32-1.52-.64-2.28-.96l.03.02Z"/>
        <path class="cls-3" d="M83.85,353.66c1.71-.21,3.29-.81,4.82-1.58,6.61-3.34,13.27-6.56,20.3-8.92,4.45-1.49,8.99-2.73,13.69-3.2,5.99-.59,11.91-.31,17.66,1.66,4.25,1.46,8.01,3.75,11.42,6.63,3.77,3.19,7.37,6.58,10.96,9.97,6.18,5.84,12.76,11.17,19.84,15.92,4.21,2.82,8.5,5.49,12.93,7.92,6.03,3.31,12.49,5.01,19.39,4.27,6.97-.75,13.77-2.27,20.19-5.22,2.83-1.3,5.93-1.59,8.95-2.11,3.61-.63,7.27-1.02,10.92-1.13,3.23-.09,6.43.55,9.5,1.69,2.92,1.09,5.57,2.69,7.95,4.66,1.42,1.17,2.61,2.64,3.85,4.03,2.94,3.27,5.96,6.46,9.09,9.54,3.46,3.42,7.25,6.45,11.15,9.35,4.25,3.16,8.45,6.4,13.12,8.93,2.06,1.12,3.93,2.49,5.84,3.81,1.32.92,2.38,2.2,3.7,3.12,2.48,1.73,3.43,4.65,5.44,6.73.25.26.49.5.81.67.55.7,1.35,1.33.7,2.39-1.12-1.1-2.23-2.2-3.36-3.28-2.9-2.78-6.12-5.17-9.69-6.97-2.02-1.02-3.77-2.37-5.66-3.53-2.27-1.4-4.64-2.64-6.85-4.13-2.51-1.69-4.92-3.53-7.31-5.39-4.53-3.52-8.84-7.3-12.93-11.31-1.95-1.91-3.72-4.01-5.73-5.86-3.11-2.86-6.06-5.91-9.62-8.26-2.8-1.84-5.78-3.08-9.22-2.93-4.79.22-9.4,1.37-13.96,2.71-3.38.99-6.76,1.98-10.04,3.27-1,.39-2.07.35-3.07.47-1.86.22-3.69.4-5.37,1.3-1.55.83-3.34.31-4.94.83-1.39.45-2.82-.4-4.19.21-1.4.62-2.68.1-4-.35-1.76-.6-3.59-.88-5.44-1.06-1.84-.18-3.68-.41-5.53-.57-1.79-.15-3.24-1.42-4.77-2.32-6.98-4.07-13.42-8.93-19.81-13.86-3.5-2.7-7.06-5.34-10.62-7.96-2.35-1.73-4.44-3.8-6.66-5.71-3.12-2.67-6.27-5.31-9.36-8.01-1.34-1.17-2.72-2.29-4.21-3.27-.59-.39-.54-1.12-.99-1.73-.12.9-.53.7-.97.34-.58-.47-1.16-.95-1.75-1.42-.34-.26-.59-1.15-1.15-.14-.12.22-.5-.1-.74-.2-3.43-1.48-7-2.28-10.74-2.01-3.62.26-7.21.82-10.74,1.68-8.04,1.96-15.92,4.41-23.66,7.34-2.12.8-4.18,1.9-6.18,2.94-1.22.57-2.54.85-3.4,1.09.03-.4-.35-.97.44-1.06v.02Z"/>
        <path class="cls-3" d="M155.71,518.52c-.02-.31.1-.54.36-.7,2.44-1.46,4.18-3.87,6.92-4.94,1.29-.51,2.17-1.69,3.27-2.53,2.02-1.56,4.3-2.67,6.55-3.84,5.06-2.64,10.19-5.13,15.4-7.46,1.94-.87,4-1.49,6.02-2.18,2.13-.73,4.24-1.55,6.34-2.36,3.43-1.32,6.8-2.85,10.36-3.84,8.07-2.25,48.7-15.62,53.61-17.63,6.83-2.79,13.42-6.06,19.81-9.74,2.67-1.54,29.4-13.7,34.85-15.71,2.67-.99,4.93-2.48,6.27-5.11.22-.43.41-.85.44-1.34.29.13.25.42.2.61-.53,1.72.03,3.42.04,5.13-.75,1.46-2.09,2.28-3.5,2.87-6.7,2.77-13.02,6.29-19.5,9.5-8.49,4.2-17,8.35-25.48,12.57-3.01,1.5-6.02,2.98-9.09,4.35-8.18,3.64-16.68,6.39-25.25,8.95-9.71,2.9-19.41,5.83-29.22,8.4-7.4,1.94-14.76,4.04-21.77,7.12-10.23,4.49-20.52,8.87-30.24,14.42-1.23.71-2.42,1.51-3.55,2.38-.86.67-1.96.56-2.84,1.09h0Z"/>
      </g>
    </g>
  </g>
</svg>